<?xml version="1.0" encoding="UTF-8" standalone="no"?>
<!DOCTYPE svg PUBLIC "-//W3C//DTD SVG 1.1//EN" "http://www.w3.org/Graphics/SVG/1.1/DTD/svg11.dtd">
<svg xmlns="http://www.w3.org/2000/svg" version="1.1" viewBox="0.00 0.00 1024.00 1024.00">
<g stroke-width="2.00" fill="none" stroke-linecap="butt">
<path stroke="#808486" vector-effect="non-scaling-stroke" d="
  M 273.00 462.20
  L 284.80 462.10
  A 0.69 0.69 0.0 0 0 285.48 461.38
  C 283.99 431.70 287.55 401.98 298.87 374.35
  Q 320.35 321.91 361.37 282.78
  A 0.43 0.42 47.8 0 1 361.98 282.81
  L 371.95 294.50
  Q 372.18 294.78 371.92 295.03
  C 343.29 322.48 323.44 354.40 315.29 393.51
  C 309.60 420.82 309.13 448.97 314.49 476.33
  C 321.16 510.42 338.88 546.26 362.44 572.54
  C 400.57 615.08 454.98 638.64 512.00 640.59
  C 532.39 641.29 551.89 638.14 572.01 632.78
  C 618.40 620.39 658.75 588.48 685.11 548.84
  Q 695.26 533.57 703.85 511.90
  C 705.26 508.37 706.23 504.62 707.30 500.93
  A 0.54 0.53 -75.9 0 1 707.92 500.55
  L 720.53 502.92
  A 0.47 0.46 -77.3 0 1 720.89 503.50
  C 718.18 513.78 714.39 523.40 710.06 533.41
  Q 695.56 566.90 668.74 592.10
  Q 668.57 592.26 668.74 592.43
  L 684.60 608.99
  A 1.12 1.12 0.0 0 0 686.25 608.96
  C 721.95 568.81 740.68 516.80 740.62 463.26
  A 0.88 0.88 0.0 0 1 741.47 462.38
  L 756.30 461.94
  A 0.57 0.57 0.0 0 1 756.89 462.50
  Q 757.09 474.75 755.77 486.99
  C 751.33 528.11 737.90 567.30 714.50 601.59
  A 0.76 0.76 0.0 0 0 714.65 602.61
  L 736.37 619.77
  A 0.83 0.83 0.0 0 0 737.58 619.58
  C 757.43 589.20 769.66 554.74 776.79 519.25
  Q 785.66 475.07 776.47 428.26
  Q 772.06 405.84 761.74 380.37
  C 754.01 361.27 743.50 343.36 731.10 326.91
  C 713.65 303.77 694.85 285.69 673.11 268.50
  A 0.46 0.46 0.0 0 1 673.07 267.81
  L 684.21 256.71
  A 0.83 0.83 0.0 0 1 685.31 256.64
  C 735.09 295.08 773.31 347.92 789.19 409.53
  C 793.24 425.23 796.54 441.68 797.21 457.25
  C 798.52 488.13 796.49 517.88 788.23 547.76
  C 782.38 568.87 774.84 589.76 764.16 608.92
  C 757.28 621.25 748.55 633.09 739.46 644.20
  Q 736.89 647.36 733.87 650.09
  A 0.22 0.21 47.9 0 0 733.86 650.39
  L 746.72 664.63
  A 0.68 0.67 44.2 0 0 747.72 664.62
  C 787.48 618.48 811.69 556.79 815.19 496.52
  C 818.12 446.06 808.51 396.46 786.07 350.62
  C 763.60 304.74 730.46 265.99 688.43 236.01
  C 651.65 209.79 607.83 192.44 563.34 184.62
  C 540.02 180.52 515.51 180.18 491.96 181.86
  Q 482.04 182.56 472.12 184.27
  C 413.21 194.38 359.28 220.66 315.22 261.31
  C 299.26 276.04 284.91 293.40 272.60 311.04
  Q 240.34 357.24 227.12 412.46
  Q 224.09 425.10 222.50 438.00
  C 215.60 493.97 224.02 550.56 248.03 601.37
  Q 269.63 647.06 303.61 681.64
  Q 329.64 708.13 361.34 727.48
  Q 373.96 735.19 387.42 741.30
  C 396.58 745.46 405.92 749.78 415.10 752.97
  Q 437.31 760.69 460.42 765.04
  A 0.22 0.21 4.8 0 1 460.60 765.25
  L 460.50 817.90
  Q 460.50 818.80 461.40 818.80
  L 576.55 818.86
  Q 577.21 818.86 577.21 818.20
  L 576.93 647.55
  A 0.40 0.40 0.0 0 0 576.43 647.16
  Q 565.12 650.18 553.47 652.30
  C 522.26 657.98 492.83 656.01 462.24 648.59
  C 433.62 641.64 406.62 628.56 383.00 611.08
  A 0.59 0.59 0.0 0 0 382.22 611.15
  L 368.82 624.92
  A 1.55 1.54 45.1 0 0 368.82 627.07
  C 385.27 644.01 405.73 654.86 427.41 663.64
  C 437.87 667.87 448.64 670.67 459.64 673.25
  Q 460.25 673.39 460.25 674.01
  L 460.22 690.74
  A 0.59 0.59 0.0 0 1 459.52 691.32
  C 429.67 685.76 400.14 671.84 375.28 654.67
  C 338.60 629.33 309.45 590.17 291.94 549.80
  C 280.63 523.71 272.24 494.41 272.46 462.73
  Q 272.47 462.20 273.00 462.20"
/>
<path stroke="#808486" vector-effect="non-scaling-stroke" d="
  M 658.80 654.12
  Q 670.05 642.62 681.71 631.69
  A 0.57 0.56 47.1 0 0 681.73 630.89
  L 655.12 602.55
  A 0.81 0.80 45.7 0 0 653.97 602.53
  Q 642.82 613.63 630.45 623.34
  A 0.78 0.78 0.0 0 0 630.36 624.48
  L 658.24 654.76
  Q 658.35 654.88 658.36 654.87
  Q 658.42 654.75 658.48 654.61
  Q 658.61 654.31 658.80 654.12"
/>
<path stroke="#808486" vector-effect="non-scaling-stroke" d="
  M 703.87 628.68
  A 0.29 0.28 -42.8 0 0 703.47 628.67
  L 640.35 688.48
  Q 639.87 688.93 640.28 689.44
  L 648.49 699.77
  Q 649.46 700.99 650.59 699.90
  C 671.40 679.77 693.47 659.80 713.36 639.57
  A 0.50 0.50 0.0 0 0 713.37 638.88
  L 703.87 628.68"
/>
<path stroke="#808486" vector-effect="non-scaling-stroke" d="
  M 775.25 824.51
  C 804.08 831.22 827.91 808.99 824.12 779.68
  Q 822.55 767.52 814.12 758.63
  C 781.96 724.75 749.54 691.02 717.74 656.81
  A 0.34 0.34 0.0 0 0 717.22 656.84
  Q 715.83 658.71 714.13 660.38
  Q 688.55 685.42 662.34 709.72
  A 0.49 0.48 -41.9 0 0 662.30 710.39
  Q 664.96 713.53 667.83 716.68
  Q 709.17 761.98 750.67 807.12
  C 759.37 816.57 764.15 821.93 775.25 824.51"
/>
<path stroke="#808486" vector-effect="non-scaling-stroke" d="
  M 593.84 760.94
  C 611.67 756.28 629.83 750.28 646.24 741.81
  A 0.92 0.91 -33.9 0 0 646.52 740.40
  L 636.01 728.19
  A 0.40 0.39 -32.0 0 0 635.54 728.09
  Q 620.18 735.32 603.98 739.97
  Q 598.50 741.55 592.98 743.31
  A 0.65 0.64 79.9 0 0 592.54 743.95
  L 593.11 760.40
  A 0.58 0.58 0.0 0 0 593.84 760.94"
/>
<path stroke="#808486" vector-effect="non-scaling-stroke" d="
  M 601.47 213.85
  C 560.27 199.01 516.04 195.99 472.84 202.92
  Q 471.55 203.13 471.80 204.41
  L 474.62 218.81
  Q 474.81 219.72 475.72 219.54
  Q 515.36 211.70 554.97 218.70
  C 585.24 224.06 614.79 234.66 640.84 251.17
  Q 641.38 251.51 641.78 251.01
  L 651.43 238.70
  A 1.22 1.22 0.0 0 0 651.09 236.90
  C 635.40 227.57 618.64 220.03 601.47 213.85"
/>
<path stroke="#808486" vector-effect="non-scaling-stroke" d="
  M 409.90 221.59
  C 391.03 229.40 373.51 239.58 356.53 250.88
  A 0.59 0.59 0.0 0 0 356.41 251.75
  L 368.06 265.57
  A 0.51 0.51 0.0 0 0 368.74 265.66
  C 395.11 247.37 422.45 232.89 453.57 224.76
  A 1.71 1.71 0.0 0 0 454.78 222.63
  L 450.55 208.22
  A 0.33 0.33 0.0 0 0 450.16 208.00
  Q 429.60 213.43 409.90 221.59"
/>
<path stroke="#808486" vector-effect="non-scaling-stroke" d="
  M 576.44 250.24
  C 536.18 236.60 492.41 237.58 452.03 250.51
  C 427.64 258.31 408.10 270.09 387.80 285.73
  Q 387.55 285.93 387.76 286.16
  L 399.76 299.61
  A 0.60 0.60 0.0 0 0 400.66 299.60
  Q 402.31 297.64 404.41 295.90
  Q 435.47 270.25 474.75 260.99
  C 522.48 249.74 569.53 258.70 610.51 284.56
  C 619.09 289.97 626.39 296.12 634.42 302.19
  Q 635.42 302.95 636.31 302.06
  L 645.81 292.56
  A 0.92 0.91 -45.7 0 0 645.80 291.26
  C 626.85 272.70 601.42 258.71 576.44 250.24"
/>
<path stroke="#808486" vector-effect="non-scaling-stroke" d="
  M 380.44 527.01
  C 436.19 604.03 550.84 620.10 622.55 555.44
  Q 634.06 545.06 645.17 531.70
  C 659.98 513.91 668.45 494.60 673.98 473.25
  Q 681.38 444.66 677.14 414.61
  Q 674.88 398.63 668.81 382.44
  C 655.62 347.28 628.78 317.11 596.72 298.15
  C 564.79 279.27 527.06 272.07 490.50 277.30
  C 431.14 285.78 377.81 329.43 358.22 387.04
  Q 353.47 401.00 351.75 419.00
  Q 345.96 479.37 380.44 527.01"
/>
<path stroke="#808486" vector-effect="non-scaling-stroke" d="
  M 708.46 374.30
  Q 720.23 404.95 723.20 439.10
  A 0.34 0.34 0.0 0 0 723.54 439.41
  L 748.44 439.41
  A 0.47 0.46 86.7 0 0 748.90 438.89
  C 745.19 403.42 731.67 366.64 711.59 337.15
  C 702.33 323.54 692.34 310.77 680.49 299.38
  A 1.03 1.03 0.0 0 0 679.06 299.37
  L 668.13 309.61
  A 0.89 0.89 0.0 0 0 668.09 310.87
  C 685.41 329.35 699.43 350.78 708.46 374.30"
/>
<path stroke="#808486" vector-effect="non-scaling-stroke" d="
  M 641.65 561.64
  C 610.05 593.93 564.96 613.73 519.74 614.01
  C 481.04 614.25 444.81 602.65 409.90 586.76
  A 0.47 0.46 -80.4 0 0 409.25 587.23
  Q 409.30 587.75 409.67 588.05
  C 443.16 614.85 489.70 624.79 530.99 622.04
  C 560.50 620.08 589.41 609.99 614.48 594.49
  C 625.88 587.44 636.18 578.09 645.92 568.92
  Q 653.15 562.11 659.43 554.40
  Q 689.34 517.67 697.24 471.19
  C 699.97 455.12 698.72 441.54 695.83 424.69
  Q 695.81 424.55 695.66 424.55
  L 695.36 424.57
  Q 694.86 424.59 694.88 425.09
  Q 695.91 474.92 673.67 518.62
  C 665.53 534.62 654.29 548.72 641.65 561.64"
/>
<path stroke="#808486" vector-effect="non-scaling-stroke" d="
  M 359.37 684.88
  C 316.53 654.17 285.04 605.91 268.29 556.53
  C 258.17 526.73 254.36 494.16 255.49 462.56
  A 0.28 0.28 0.0 0 0 255.21 462.27
  L 238.86 462.30
  Q 238.20 462.30 238.17 462.96
  C 236.46 503.22 243.39 544.27 259.18 581.33
  C 278.82 627.43 309.53 670.00 351.00 699.39
  C 367.55 711.12 384.82 721.33 403.59 729.17
  Q 421.89 736.81 440.71 742.10
  Q 441.48 742.32 441.67 741.54
  L 445.37 726.30
  A 0.68 0.68 0.0 0 0 444.87 725.48
  C 427.10 721.11 409.81 713.77 393.35 705.88
  Q 379.22 699.10 359.37 684.88"
/>
<path stroke="#808486" vector-effect="non-scaling-stroke" d="
  M 517.83 713.37
  Q 517.02 713.03 516.42 712.33
  Q 508.31 702.84 499.71 693.79
  Q 497.66 691.63 495.49 689.96
  A 0.90 0.90 0.0 0 0 494.29 690.05
  L 483.45 701.41
  A 0.78 0.77 -45.3 0 0 483.45 702.48
  L 517.43 737.91
  Q 517.72 738.22 518.02 737.91
  L 552.25 702.85
  Q 552.87 702.22 552.29 701.55
  L 542.06 689.63
  A 0.71 0.70 47.1 0 0 541.02 689.59
  L 517.94 713.35
  A 0.10 0.09 -53.7 0 1 517.83 713.37"
/>
<path stroke="#808486" vector-effect="non-scaling-stroke" d="
  M 517.31 781.00
  L 495.26 757.23
  A 0.36 0.36 0.0 0 0 494.74 757.23
  L 483.05 769.53
  Q 482.44 770.17 483.14 770.71
  Q 485.19 772.29 487.18 774.33
  Q 502.29 789.85 517.44 805.96
  A 0.53 0.52 45.4 0 0 518.20 805.97
  L 553.19 770.55
  A 1.24 1.23 46.4 0 0 553.23 768.87
  L 543.25 757.65
  A 1.21 1.21 0.0 0 0 541.48 757.60
  L 518.32 781.02
  A 0.70 0.69 45.8 0 1 517.31 781.00"
/>
<path stroke="#808486" vector-effect="non-scaling-stroke" d="
  M 662.00 416.28
  Q 658.11 401.74 652.73 387.02
  C 642.52 359.15 623.84 335.48 599.81 318.23
  C 564.79 293.09 515.90 283.09 475.83 300.86
  C 455.64 309.81 438.08 323.13 422.31 338.62
  C 415.95 344.87 409.98 352.71 403.98 359.91
  Q 403.84 360.08 404.00 360.23
  L 404.01 360.24
  Q 404.18 360.39 404.33 360.23
  C 407.40 357.10 410.44 353.57 413.43 350.80
  Q 435.60 330.25 463.55 318.45
  C 485.88 309.03 513.05 306.38 536.88 310.77
  Q 572.67 317.35 601.16 339.77
  C 614.53 350.29 626.38 363.86 636.56 377.67
  C 645.69 390.05 654.73 402.96 661.34 416.52
  Q 662.93 419.78 662.00 416.28"
/>
<path stroke="#808486" vector-effect="non-scaling-stroke" d="
  M 635.58 419.44
  C 630.95 415.97 627.02 411.27 622.45 407.55
  Q 621.84 407.05 621.75 407.02
  Q 620.45 406.62 620.67 407.96
  C 625.43 436.55 617.54 466.84 598.87 489.37
  Q 587.60 502.97 575.56 510.80
  C 537.92 535.29 487.06 533.80 450.60 507.16
  C 436.94 497.19 425.94 484.70 415.09 471.09
  Q 403.60 456.67 394.97 440.80
  Q 393.78 438.62 394.33 441.04
  Q 395.88 447.88 397.97 455.61
  Q 404.86 481.06 421.64 501.35
  C 431.81 513.64 443.20 524.24 457.18 531.76
  C 501.64 555.69 558.61 550.74 596.82 516.24
  Q 628.03 488.05 637.44 445.97
  Q 639.19 438.16 640.36 430.24
  C 640.73 427.78 641.02 426.04 639.93 423.63
  C 636.39 415.87 633.04 406.55 629.94 400.14
  C 610.40 359.74 569.44 327.66 522.76 329.45
  Q 500.57 330.30 479.12 338.73
  Q 476.66 339.70 479.26 339.21
  Q 492.12 336.77 506.25 337.45
  Q 547.04 339.42 579.75 363.54
  C 600.43 378.79 614.89 395.53 631.22 413.25
  Q 634.11 416.39 635.89 419.16
  Q 636.53 420.16 635.58 419.44"
/>
<path stroke="#808486" vector-effect="non-scaling-stroke" d="
  M 462.8344 429.5523
  A 38.95 38.54 118.4 0 0 515.2617 413.6206
  A 38.95 38.54 118.4 0 0 499.8856 361.0277
  A 38.95 38.54 118.4 0 0 447.4583 376.9594
  A 38.95 38.54 118.4 0 0 462.8344 429.5523"
/>
<path stroke="#808486" vector-effect="non-scaling-stroke" d="
  M 574.9573 377.8427
  A 23.77 23.35 -17.6 0 0 545.2397 362.7730
  A 23.77 23.35 -17.6 0 0 529.6427 392.2173
  A 23.77 23.35 -17.6 0 0 559.3603 407.2870
  A 23.77 23.35 -17.6 0 0 574.9573 377.8427"
/>
<path stroke="#808486" vector-effect="non-scaling-stroke" d="
  M 448.03 544.88
  C 421.12 529.04 400.56 503.08 388.59 473.98
  C 377.81 447.78 371.14 418.49 374.56 390.30
  Q 374.83 388.09 374.13 390.20
  Q 362.11 426.52 369.09 463.76
  C 374.89 494.66 391.76 520.29 414.53 541.36
  C 435.07 560.37 462.06 572.69 489.49 577.82
  C 528.22 585.06 568.06 576.18 600.14 553.39
  Q 643.03 522.90 657.85 472.27
  Q 660.79 462.21 663.43 452.74
  Q 663.97 450.80 663.03 452.59
  Q 651.21 475.13 636.12 496.36
  C 612.03 530.26 579.30 554.01 537.75 561.24
  C 507.74 566.46 474.30 560.33 448.03 544.88"
/>
<path stroke="#808486" vector-effect="non-scaling-stroke" d="
  M 589.22 410.62
  Q 588.72 437.91 574.19 460.15
  C 556.20 487.68 523.68 497.20 492.43 487.62
  C 462.20 478.36 446.14 449.73 439.06 421.04
  Q 437.54 414.85 437.18 408.94
  Q 437.06 406.95 436.50 408.86
  C 426.65 442.85 444.30 482.39 475.79 498.47
  C 515.31 518.64 566.54 506.94 587.28 465.22
  C 596.45 446.76 597.04 424.73 590.20 405.43
  Q 589.39 403.16 589.33 405.56
  Q 589.28 407.61 589.22 410.62"
/>
</g>
<path fill="#01090d" d="
  M 0.00 0.00
  L 1024.00 0.00
  L 1024.00 1024.00
  L 0.00 1024.00
  L 0.00 0.00
  Z
  M 273.00 462.20
  L 284.80 462.10
  A 0.69 0.69 0.0 0 0 285.48 461.38
  C 283.99 431.70 287.55 401.98 298.87 374.35
  Q 320.35 321.91 361.37 282.78
  A 0.43 0.42 47.8 0 1 361.98 282.81
  L 371.95 294.50
  Q 372.18 294.78 371.92 295.03
  C 343.29 322.48 323.44 354.40 315.29 393.51
  C 309.60 420.82 309.13 448.97 314.49 476.33
  C 321.16 510.42 338.88 546.26 362.44 572.54
  C 400.57 615.08 454.98 638.64 512.00 640.59
  C 532.39 641.29 551.89 638.14 572.01 632.78
  C 618.40 620.39 658.75 588.48 685.11 548.84
  Q 695.26 533.57 703.85 511.90
  C 705.26 508.37 706.23 504.62 707.30 500.93
  A 0.54 0.53 -75.9 0 1 707.92 500.55
  L 720.53 502.92
  A 0.47 0.46 -77.3 0 1 720.89 503.50
  C 718.18 513.78 714.39 523.40 710.06 533.41
  Q 695.56 566.90 668.74 592.10
  Q 668.57 592.26 668.74 592.43
  L 684.60 608.99
  A 1.12 1.12 0.0 0 0 686.25 608.96
  C 721.95 568.81 740.68 516.80 740.62 463.26
  A 0.88 0.88 0.0 0 1 741.47 462.38
  L 756.30 461.94
  A 0.57 0.57 0.0 0 1 756.89 462.50
  Q 757.09 474.75 755.77 486.99
  C 751.33 528.11 737.90 567.30 714.50 601.59
  A 0.76 0.76 0.0 0 0 714.65 602.61
  L 736.37 619.77
  A 0.83 0.83 0.0 0 0 737.58 619.58
  C 757.43 589.20 769.66 554.74 776.79 519.25
  Q 785.66 475.07 776.47 428.26
  Q 772.06 405.84 761.74 380.37
  C 754.01 361.27 743.50 343.36 731.10 326.91
  C 713.65 303.77 694.85 285.69 673.11 268.50
  A 0.46 0.46 0.0 0 1 673.07 267.81
  L 684.21 256.71
  A 0.83 0.83 0.0 0 1 685.31 256.64
  C 735.09 295.08 773.31 347.92 789.19 409.53
  C 793.24 425.23 796.54 441.68 797.21 457.25
  C 798.52 488.13 796.49 517.88 788.23 547.76
  C 782.38 568.87 774.84 589.76 764.16 608.92
  C 757.28 621.25 748.55 633.09 739.46 644.20
  Q 736.89 647.36 733.87 650.09
  A 0.22 0.21 47.9 0 0 733.86 650.39
  L 746.72 664.63
  A 0.68 0.67 44.2 0 0 747.72 664.62
  C 787.48 618.48 811.69 556.79 815.19 496.52
  C 818.12 446.06 808.51 396.46 786.07 350.62
  C 763.60 304.74 730.46 265.99 688.43 236.01
  C 651.65 209.79 607.83 192.44 563.34 184.62
  C 540.02 180.52 515.51 180.18 491.96 181.86
  Q 482.04 182.56 472.12 184.27
  C 413.21 194.38 359.28 220.66 315.22 261.31
  C 299.26 276.04 284.91 293.40 272.60 311.04
  Q 240.34 357.24 227.12 412.46
  Q 224.09 425.10 222.50 438.00
  C 215.60 493.97 224.02 550.56 248.03 601.37
  Q 269.63 647.06 303.61 681.64
  Q 329.64 708.13 361.34 727.48
  Q 373.96 735.19 387.42 741.30
  C 396.58 745.46 405.92 749.78 415.10 752.97
  Q 437.31 760.69 460.42 765.04
  A 0.22 0.21 4.8 0 1 460.60 765.25
  L 460.50 817.90
  Q 460.50 818.80 461.40 818.80
  L 576.55 818.86
  Q 577.21 818.86 577.21 818.20
  L 576.93 647.55
  A 0.40 0.40 0.0 0 0 576.43 647.16
  Q 565.12 650.18 553.47 652.30
  C 522.26 657.98 492.83 656.01 462.24 648.59
  C 433.62 641.64 406.62 628.56 383.00 611.08
  A 0.59 0.59 0.0 0 0 382.22 611.15
  L 368.82 624.92
  A 1.55 1.54 45.1 0 0 368.82 627.07
  C 385.27 644.01 405.73 654.86 427.41 663.64
  C 437.87 667.87 448.64 670.67 459.64 673.25
  Q 460.25 673.39 460.25 674.01
  L 460.22 690.74
  A 0.59 0.59 0.0 0 1 459.52 691.32
  C 429.67 685.76 400.14 671.84 375.28 654.67
  C 338.60 629.33 309.45 590.17 291.94 549.80
  C 280.63 523.71 272.24 494.41 272.46 462.73
  Q 272.47 462.20 273.00 462.20
  Z
  M 658.80 654.12
  Q 670.05 642.62 681.71 631.69
  A 0.57 0.56 47.1 0 0 681.73 630.89
  L 655.12 602.55
  A 0.81 0.80 45.7 0 0 653.97 602.53
  Q 642.82 613.63 630.45 623.34
  A 0.78 0.78 0.0 0 0 630.36 624.48
  L 658.24 654.76
  Q 658.35 654.88 658.36 654.87
  Q 658.42 654.75 658.48 654.61
  Q 658.61 654.31 658.80 654.12
  Z
  M 703.87 628.68
  A 0.29 0.28 -42.8 0 0 703.47 628.67
  L 640.35 688.48
  Q 639.87 688.93 640.28 689.44
  L 648.49 699.77
  Q 649.46 700.99 650.59 699.90
  C 671.40 679.77 693.47 659.80 713.36 639.57
  A 0.50 0.50 0.0 0 0 713.37 638.88
  L 703.87 628.68
  Z
  M 775.25 824.51
  C 804.08 831.22 827.91 808.99 824.12 779.68
  Q 822.55 767.52 814.12 758.63
  C 781.96 724.75 749.54 691.02 717.74 656.81
  A 0.34 0.34 0.0 0 0 717.22 656.84
  Q 715.83 658.71 714.13 660.38
  Q 688.55 685.42 662.34 709.72
  A 0.49 0.48 -41.9 0 0 662.30 710.39
  Q 664.96 713.53 667.83 716.68
  Q 709.17 761.98 750.67 807.12
  C 759.37 816.57 764.15 821.93 775.25 824.51
  Z
  M 593.84 760.94
  C 611.67 756.28 629.83 750.28 646.24 741.81
  A 0.92 0.91 -33.9 0 0 646.52 740.40
  L 636.01 728.19
  A 0.40 0.39 -32.0 0 0 635.54 728.09
  Q 620.18 735.32 603.98 739.97
  Q 598.50 741.55 592.98 743.31
  A 0.65 0.64 79.9 0 0 592.54 743.95
  L 593.11 760.40
  A 0.58 0.58 0.0 0 0 593.84 760.94
  Z"
/>
<path fill="#ffffff" d="
  M 272.46 462.73
  C 272.24 494.41 280.63 523.71 291.94 549.80
  C 309.45 590.17 338.60 629.33 375.28 654.67
  C 400.14 671.84 429.67 685.76 459.52 691.32
  A 0.59 0.59 0.0 0 0 460.22 690.74
  L 460.25 674.01
  Q 460.25 673.39 459.64 673.25
  C 448.64 670.67 437.87 667.87 427.41 663.64
  C 405.73 654.86 385.27 644.01 368.82 627.07
  A 1.55 1.54 45.1 0 1 368.82 624.92
  L 382.22 611.15
  A 0.59 0.59 0.0 0 1 383.00 611.08
  C 406.62 628.56 433.62 641.64 462.24 648.59
  C 492.83 656.01 522.26 657.98 553.47 652.30
  Q 565.12 650.18 576.43 647.16
  A 0.40 0.40 0.0 0 1 576.93 647.55
  L 577.21 818.20
  Q 577.21 818.86 576.55 818.86
  L 461.40 818.80
  Q 460.50 818.80 460.50 817.90
  L 460.60 765.25
  A 0.22 0.21 4.8 0 0 460.42 765.04
  Q 437.31 760.69 415.10 752.97
  C 405.92 749.78 396.58 745.46 387.42 741.30
  Q 373.96 735.19 361.34 727.48
  Q 329.64 708.13 303.61 681.64
  Q 269.63 647.06 248.03 601.37
  C 224.02 550.56 215.60 493.97 222.50 438.00
  Q 224.09 425.10 227.12 412.46
  Q 240.34 357.24 272.60 311.04
  C 284.91 293.40 299.26 276.04 315.22 261.31
  C 359.28 220.66 413.21 194.38 472.12 184.27
  Q 482.04 182.56 491.96 181.86
  C 515.51 180.18 540.02 180.52 563.34 184.62
  C 607.83 192.44 651.65 209.79 688.43 236.01
  C 730.46 265.99 763.60 304.74 786.07 350.62
  C 808.51 396.46 818.12 446.06 815.19 496.52
  C 811.69 556.79 787.48 618.48 747.72 664.62
  A 0.68 0.67 44.2 0 1 746.72 664.63
  L 733.86 650.39
  A 0.22 0.21 47.9 0 1 733.87 650.09
  Q 736.89 647.36 739.46 644.20
  C 748.55 633.09 757.28 621.25 764.16 608.92
  C 774.84 589.76 782.38 568.87 788.23 547.76
  C 796.49 517.88 798.52 488.13 797.21 457.25
  C 796.54 441.68 793.24 425.23 789.19 409.53
  C 773.31 347.92 735.09 295.08 685.31 256.64
  A 0.83 0.83 0.0 0 0 684.21 256.71
  L 673.07 267.81
  A 0.46 0.46 0.0 0 0 673.11 268.50
  C 694.85 285.69 713.65 303.77 731.10 326.91
  C 743.50 343.36 754.01 361.27 761.74 380.37
  Q 772.06 405.84 776.47 428.26
  Q 785.66 475.07 776.79 519.25
  C 769.66 554.74 757.43 589.20 737.58 619.58
  A 0.83 0.83 0.0 0 1 736.37 619.77
  L 714.65 602.61
  A 0.76 0.76 0.0 0 1 714.50 601.59
  C 737.90 567.30 751.33 528.11 755.77 486.99
  Q 757.09 474.75 756.89 462.50
  A 0.57 0.57 0.0 0 0 756.30 461.94
  L 741.47 462.38
  A 0.88 0.88 0.0 0 0 740.62 463.26
  C 740.68 516.80 721.95 568.81 686.25 608.96
  A 1.12 1.12 0.0 0 1 684.60 608.99
  L 668.74 592.43
  Q 668.57 592.26 668.74 592.10
  Q 695.56 566.90 710.06 533.41
  C 714.39 523.40 718.18 513.78 720.89 503.50
  A 0.47 0.46 -77.3 0 0 720.53 502.92
  L 707.92 500.55
  A 0.54 0.53 -75.9 0 0 707.30 500.93
  C 706.23 504.62 705.26 508.37 703.85 511.90
  Q 695.26 533.57 685.11 548.84
  C 658.75 588.48 618.40 620.39 572.01 632.78
  C 551.89 638.14 532.39 641.29 512.00 640.59
  C 454.98 638.64 400.57 615.08 362.44 572.54
  C 338.88 546.26 321.16 510.42 314.49 476.33
  C 309.13 448.97 309.60 420.82 315.29 393.51
  C 323.44 354.40 343.29 322.48 371.92 295.03
  Q 372.18 294.78 371.95 294.50
  L 361.98 282.81
  A 0.43 0.42 47.8 0 0 361.37 282.78
  Q 320.35 321.91 298.87 374.35
  C 287.55 401.98 283.99 431.70 285.48 461.38
  A 0.69 0.69 0.0 0 1 284.80 462.10
  L 273.00 462.20
  Q 272.47 462.20 272.46 462.73
  Z
  M 601.47 213.85
  C 560.27 199.01 516.04 195.99 472.84 202.92
  Q 471.55 203.13 471.80 204.41
  L 474.62 218.81
  Q 474.81 219.72 475.72 219.54
  Q 515.36 211.70 554.97 218.70
  C 585.24 224.06 614.79 234.66 640.84 251.17
  Q 641.38 251.51 641.78 251.01
  L 651.43 238.70
  A 1.22 1.22 0.0 0 0 651.09 236.90
  C 635.40 227.57 618.64 220.03 601.47 213.85
  Z
  M 409.90 221.59
  C 391.03 229.40 373.51 239.58 356.53 250.88
  A 0.59 0.59 0.0 0 0 356.41 251.75
  L 368.06 265.57
  A 0.51 0.51 0.0 0 0 368.74 265.66
  C 395.11 247.37 422.45 232.89 453.57 224.76
  A 1.71 1.71 0.0 0 0 454.78 222.63
  L 450.55 208.22
  A 0.33 0.33 0.0 0 0 450.16 208.00
  Q 429.60 213.43 409.90 221.59
  Z
  M 576.44 250.24
  C 536.18 236.60 492.41 237.58 452.03 250.51
  C 427.64 258.31 408.10 270.09 387.80 285.73
  Q 387.55 285.93 387.76 286.16
  L 399.76 299.61
  A 0.60 0.60 0.0 0 0 400.66 299.60
  Q 402.31 297.64 404.41 295.90
  Q 435.47 270.25 474.75 260.99
  C 522.48 249.74 569.53 258.70 610.51 284.56
  C 619.09 289.97 626.39 296.12 634.42 302.19
  Q 635.42 302.95 636.31 302.06
  L 645.81 292.56
  A 0.92 0.91 -45.7 0 0 645.80 291.26
  C 626.85 272.70 601.42 258.71 576.44 250.24
  Z
  M 380.44 527.01
  C 436.19 604.03 550.84 620.10 622.55 555.44
  Q 634.06 545.06 645.17 531.70
  C 659.98 513.91 668.45 494.60 673.98 473.25
  Q 681.38 444.66 677.14 414.61
  Q 674.88 398.63 668.81 382.44
  C 655.62 347.28 628.78 317.11 596.72 298.15
  C 564.79 279.27 527.06 272.07 490.50 277.30
  C 431.14 285.78 377.81 329.43 358.22 387.04
  Q 353.47 401.00 351.75 419.00
  Q 345.96 479.37 380.44 527.01
  Z
  M 708.46 374.30
  Q 720.23 404.95 723.20 439.10
  A 0.34 0.34 0.0 0 0 723.54 439.41
  L 748.44 439.41
  A 0.47 0.46 86.7 0 0 748.90 438.89
  C 745.19 403.42 731.67 366.64 711.59 337.15
  C 702.33 323.54 692.34 310.77 680.49 299.38
  A 1.03 1.03 0.0 0 0 679.06 299.37
  L 668.13 309.61
  A 0.89 0.89 0.0 0 0 668.09 310.87
  C 685.41 329.35 699.43 350.78 708.46 374.30
  Z
  M 641.65 561.64
  C 610.05 593.93 564.96 613.73 519.74 614.01
  C 481.04 614.25 444.81 602.65 409.90 586.76
  A 0.47 0.46 -80.4 0 0 409.25 587.23
  Q 409.30 587.75 409.67 588.05
  C 443.16 614.85 489.70 624.79 530.99 622.04
  C 560.50 620.08 589.41 609.99 614.48 594.49
  C 625.88 587.44 636.18 578.09 645.92 568.92
  Q 653.15 562.11 659.43 554.40
  Q 689.34 517.67 697.24 471.19
  C 699.97 455.12 698.72 441.54 695.83 424.69
  Q 695.81 424.55 695.66 424.55
  L 695.36 424.57
  Q 694.86 424.59 694.88 425.09
  Q 695.91 474.92 673.67 518.62
  C 665.53 534.62 654.29 548.72 641.65 561.64
  Z
  M 359.37 684.88
  C 316.53 654.17 285.04 605.91 268.29 556.53
  C 258.17 526.73 254.36 494.16 255.49 462.56
  A 0.28 0.28 0.0 0 0 255.21 462.27
  L 238.86 462.30
  Q 238.20 462.30 238.17 462.96
  C 236.46 503.22 243.39 544.27 259.18 581.33
  C 278.82 627.43 309.53 670.00 351.00 699.39
  C 367.55 711.12 384.82 721.33 403.59 729.17
  Q 421.89 736.81 440.71 742.10
  Q 441.48 742.32 441.67 741.54
  L 445.37 726.30
  A 0.68 0.68 0.0 0 0 444.87 725.48
  C 427.10 721.11 409.81 713.77 393.35 705.88
  Q 379.22 699.10 359.37 684.88
  Z
  M 517.83 713.37
  Q 517.02 713.03 516.42 712.33
  Q 508.31 702.84 499.71 693.79
  Q 497.66 691.63 495.49 689.96
  A 0.90 0.90 0.0 0 0 494.29 690.05
  L 483.45 701.41
  A 0.78 0.77 -45.3 0 0 483.45 702.48
  L 517.43 737.91
  Q 517.72 738.22 518.02 737.91
  L 552.25 702.85
  Q 552.87 702.22 552.29 701.55
  L 542.06 689.63
  A 0.71 0.70 47.1 0 0 541.02 689.59
  L 517.94 713.35
  A 0.10 0.09 -53.7 0 1 517.83 713.37
  Z
  M 517.31 781.00
  L 495.26 757.23
  A 0.36 0.36 0.0 0 0 494.74 757.23
  L 483.05 769.53
  Q 482.44 770.17 483.14 770.71
  Q 485.19 772.29 487.18 774.33
  Q 502.29 789.85 517.44 805.96
  A 0.53 0.52 45.4 0 0 518.20 805.97
  L 553.19 770.55
  A 1.24 1.23 46.4 0 0 553.23 768.87
  L 543.25 757.65
  A 1.21 1.21 0.0 0 0 541.48 757.60
  L 518.32 781.02
  A 0.70 0.69 45.8 0 1 517.31 781.00
  Z"
/>
<path fill="#01090d" d="
  M 601.47 213.85
  C 618.64 220.03 635.40 227.57 651.09 236.90
  A 1.22 1.22 0.0 0 1 651.43 238.70
  L 641.78 251.01
  Q 641.38 251.51 640.84 251.17
  C 614.79 234.66 585.24 224.06 554.97 218.70
  Q 515.36 211.70 475.72 219.54
  Q 474.81 219.72 474.62 218.81
  L 471.80 204.41
  Q 471.55 203.13 472.84 202.92
  C 516.04 195.99 560.27 199.01 601.47 213.85
  Z"
/>
<path fill="#01090d" d="
  M 409.90 221.59
  Q 429.60 213.43 450.16 208.00
  A 0.33 0.33 0.0 0 1 450.55 208.22
  L 454.78 222.63
  A 1.71 1.71 0.0 0 1 453.57 224.76
  C 422.45 232.89 395.11 247.37 368.74 265.66
  A 0.51 0.51 0.0 0 1 368.06 265.57
  L 356.41 251.75
  A 0.59 0.59 0.0 0 1 356.53 250.88
  C 373.51 239.58 391.03 229.40 409.90 221.59
  Z"
/>
<path fill="#01090d" d="
  M 452.03 250.51
  C 492.41 237.58 536.18 236.60 576.44 250.24
  C 601.42 258.71 626.85 272.70 645.80 291.26
  A 0.92 0.91 -45.7 0 1 645.81 292.56
  L 636.31 302.06
  Q 635.42 302.95 634.42 302.19
  C 626.39 296.12 619.09 289.97 610.51 284.56
  C 569.53 258.70 522.48 249.74 474.75 260.99
  Q 435.47 270.25 404.41 295.90
  Q 402.31 297.64 400.66 299.60
  A 0.60 0.60 0.0 0 1 399.76 299.61
  L 387.76 286.16
  Q 387.55 285.93 387.80 285.73
  C 408.10 270.09 427.64 258.31 452.03 250.51
  Z"
/>
<path fill="#01090d" d="
  M 622.55 555.44
  C 550.84 620.10 436.19 604.03 380.44 527.01
  Q 345.96 479.37 351.75 419.00
  Q 353.47 401.00 358.22 387.04
  C 377.81 329.43 431.14 285.78 490.50 277.30
  C 527.06 272.07 564.79 279.27 596.72 298.15
  C 628.78 317.11 655.62 347.28 668.81 382.44
  Q 674.88 398.63 677.14 414.61
  Q 681.38 444.66 673.98 473.25
  C 668.45 494.60 659.98 513.91 645.17 531.70
  Q 634.06 545.06 622.55 555.44
  Z
  M 662.00 416.28
  Q 658.11 401.74 652.73 387.02
  C 642.52 359.15 623.84 335.48 599.81 318.23
  C 564.79 293.09 515.90 283.09 475.83 300.86
  C 455.64 309.81 438.08 323.13 422.31 338.62
  C 415.95 344.87 409.98 352.71 403.98 359.91
  Q 403.84 360.08 404.00 360.23
  L 404.01 360.24
  Q 404.18 360.39 404.33 360.23
  C 407.40 357.10 410.44 353.57 413.43 350.80
  Q 435.60 330.25 463.55 318.45
  C 485.88 309.03 513.05 306.38 536.88 310.77
  Q 572.67 317.35 601.16 339.77
  C 614.53 350.29 626.38 363.86 636.56 377.67
  C 645.69 390.05 654.73 402.96 661.34 416.52
  Q 662.93 419.78 662.00 416.28
  Z
  M 635.58 419.44
  C 630.95 415.97 627.02 411.27 622.45 407.55
  Q 621.84 407.05 621.75 407.02
  Q 620.45 406.62 620.67 407.96
  C 625.43 436.55 617.54 466.84 598.87 489.37
  Q 587.60 502.97 575.56 510.80
  C 537.92 535.29 487.06 533.80 450.60 507.16
  C 436.94 497.19 425.94 484.70 415.09 471.09
  Q 403.60 456.67 394.97 440.80
  Q 393.78 438.62 394.33 441.04
  Q 395.88 447.88 397.97 455.61
  Q 404.86 481.06 421.64 501.35
  C 431.81 513.64 443.20 524.24 457.18 531.76
  C 501.64 555.69 558.61 550.74 596.82 516.24
  Q 628.03 488.05 637.44 445.97
  Q 639.19 438.16 640.36 430.24
  C 640.73 427.78 641.02 426.04 639.93 423.63
  C 636.39 415.87 633.04 406.55 629.94 400.14
  C 610.40 359.74 569.44 327.66 522.76 329.45
  Q 500.57 330.30 479.12 338.73
  Q 476.66 339.70 479.26 339.21
  Q 492.12 336.77 506.25 337.45
  Q 547.04 339.42 579.75 363.54
  C 600.43 378.79 614.89 395.53 631.22 413.25
  Q 634.11 416.39 635.89 419.16
  Q 636.53 420.16 635.58 419.44
  Z
  M 462.8344 429.5523
  A 38.95 38.54 118.4 0 0 515.2617 413.6206
  A 38.95 38.54 118.4 0 0 499.8856 361.0277
  A 38.95 38.54 118.4 0 0 447.4583 376.9594
  A 38.95 38.54 118.4 0 0 462.8344 429.5523
  Z
  M 574.9573 377.8427
  A 23.77 23.35 -17.6 0 0 545.2397 362.7730
  A 23.77 23.35 -17.6 0 0 529.6427 392.2173
  A 23.77 23.35 -17.6 0 0 559.3603 407.2870
  A 23.77 23.35 -17.6 0 0 574.9573 377.8427
  Z
  M 448.03 544.88
  C 421.12 529.04 400.56 503.08 388.59 473.98
  C 377.81 447.78 371.14 418.49 374.56 390.30
  Q 374.83 388.09 374.13 390.20
  Q 362.11 426.52 369.09 463.76
  C 374.89 494.66 391.76 520.29 414.53 541.36
  C 435.07 560.37 462.06 572.69 489.49 577.82
  C 528.22 585.06 568.06 576.18 600.14 553.39
  Q 643.03 522.90 657.85 472.27
  Q 660.79 462.21 663.43 452.74
  Q 663.97 450.80 663.03 452.59
  Q 651.21 475.13 636.12 496.36
  C 612.03 530.26 579.30 554.01 537.75 561.24
  C 507.74 566.46 474.30 560.33 448.03 544.88
  Z
  M 589.22 410.62
  Q 588.72 437.91 574.19 460.15
  C 556.20 487.68 523.68 497.20 492.43 487.62
  C 462.20 478.36 446.14 449.73 439.06 421.04
  Q 437.54 414.85 437.18 408.94
  Q 437.06 406.95 436.50 408.86
  C 426.65 442.85 444.30 482.39 475.79 498.47
  C 515.31 518.64 566.54 506.94 587.28 465.22
  C 596.45 446.76 597.04 424.73 590.20 405.43
  Q 589.39 403.16 589.33 405.56
  Q 589.28 407.61 589.22 410.62
  Z"
/>
<path fill="#ffffff" d="
  M 662.00 416.28
  Q 662.93 419.78 661.34 416.52
  C 654.73 402.96 645.69 390.05 636.56 377.67
  C 626.38 363.86 614.53 350.29 601.16 339.77
  Q 572.67 317.35 536.88 310.77
  C 513.05 306.38 485.88 309.03 463.55 318.45
  Q 435.60 330.25 413.43 350.80
  C 410.44 353.57 407.40 357.10 404.33 360.23
  Q 404.18 360.39 404.01 360.24
  L 404.00 360.23
  Q 403.84 360.08 403.98 359.91
  C 409.98 352.71 415.95 344.87 422.31 338.62
  C 438.08 323.13 455.64 309.81 475.83 300.86
  C 515.90 283.09 564.79 293.09 599.81 318.23
  C 623.84 335.48 642.52 359.15 652.73 387.02
  Q 658.11 401.74 662.00 416.28
  Z"
/>
<path fill="#01090d" d="
  M 708.46 374.30
  C 699.43 350.78 685.41 329.35 668.09 310.87
  A 0.89 0.89 0.0 0 1 668.13 309.61
  L 679.06 299.37
  A 1.03 1.03 0.0 0 1 680.49 299.38
  C 692.34 310.77 702.33 323.54 711.59 337.15
  C 731.67 366.64 745.19 403.42 748.90 438.89
  A 0.47 0.46 86.7 0 1 748.44 439.41
  L 723.54 439.41
  A 0.34 0.34 0.0 0 1 723.20 439.10
  Q 720.23 404.95 708.46 374.30
  Z"
/>
<path fill="#ffffff" d="
  M 635.89 419.16
  Q 634.11 416.39 631.22 413.25
  C 614.89 395.53 600.43 378.79 579.75 363.54
  Q 547.04 339.42 506.25 337.45
  Q 492.12 336.77 479.26 339.21
  Q 476.66 339.70 479.12 338.73
  Q 500.57 330.30 522.76 329.45
  C 569.44 327.66 610.40 359.74 629.94 400.14
  C 633.04 406.55 636.39 415.87 639.93 423.63
  C 641.02 426.04 640.73 427.78 640.36 430.24
  Q 639.19 438.16 637.44 445.97
  Q 628.03 488.05 596.82 516.24
  C 558.61 550.74 501.64 555.69 457.18 531.76
  C 443.20 524.24 431.81 513.64 421.64 501.35
  Q 404.86 481.06 397.97 455.61
  Q 395.88 447.88 394.33 441.04
  Q 393.78 438.62 394.97 440.80
  Q 403.60 456.67 415.09 471.09
  C 425.94 484.70 436.94 497.19 450.60 507.16
  C 487.06 533.80 537.92 535.29 575.56 510.80
  Q 587.60 502.97 598.87 489.37
  C 617.54 466.84 625.43 436.55 620.67 407.96
  Q 620.45 406.62 621.75 407.02
  Q 621.84 407.05 622.45 407.55
  C 627.02 411.27 630.95 415.97 635.58 419.44
  Q 636.53 420.16 635.89 419.16
  Z"
/>
<ellipse fill="#ffffff" cx="0.00" cy="0.00" transform="translate(481.36,395.29) rotate(118.4)" rx="38.95" ry="38.54"/>
<ellipse fill="#ffffff" cx="0.00" cy="0.00" transform="translate(552.30,385.03) rotate(-17.6)" rx="23.77" ry="23.35"/>
<path fill="#ffffff" d="
  M 448.03 544.88
  C 474.30 560.33 507.74 566.46 537.75 561.24
  C 579.30 554.01 612.03 530.26 636.12 496.36
  Q 651.21 475.13 663.03 452.59
  Q 663.97 450.80 663.43 452.74
  Q 660.79 462.21 657.85 472.27
  Q 643.03 522.90 600.14 553.39
  C 568.06 576.18 528.22 585.06 489.49 577.82
  C 462.06 572.69 435.07 560.37 414.53 541.36
  C 391.76 520.29 374.89 494.66 369.09 463.76
  Q 362.11 426.52 374.13 390.20
  Q 374.83 388.09 374.56 390.30
  C 371.14 418.49 377.81 447.78 388.59 473.98
  C 400.56 503.08 421.12 529.04 448.03 544.88
  Z"
/>
<path fill="#ffffff" d="
  M 589.22 410.62
  Q 589.28 407.61 589.33 405.56
  Q 589.39 403.16 590.20 405.43
  C 597.04 424.73 596.45 446.76 587.28 465.22
  C 566.54 506.94 515.31 518.64 475.79 498.47
  C 444.30 482.39 426.65 442.85 436.50 408.86
  Q 437.06 406.95 437.18 408.94
  Q 437.54 414.85 439.06 421.04
  C 446.14 449.73 462.20 478.36 492.43 487.62
  C 523.68 497.20 556.20 487.68 574.19 460.15
  Q 588.72 437.91 589.22 410.62
  Z"
/>
<path fill="#01090d" d="
  M 519.74 614.01
  C 564.96 613.73 610.05 593.93 641.65 561.64
  C 654.29 548.72 665.53 534.62 673.67 518.62
  Q 695.91 474.92 694.88 425.09
  Q 694.86 424.59 695.36 424.57
  L 695.66 424.55
  Q 695.81 424.55 695.83 424.69
  C 698.72 441.54 699.97 455.12 697.24 471.19
  Q 689.34 517.67 659.43 554.40
  Q 653.15 562.11 645.92 568.92
  C 636.18 578.09 625.88 587.44 614.48 594.49
  C 589.41 609.99 560.50 620.08 530.99 622.04
  C 489.70 624.79 443.16 614.85 409.67 588.05
  Q 409.30 587.75 409.25 587.23
  A 0.47 0.46 -80.4 0 1 409.90 586.76
  C 444.81 602.65 481.04 614.25 519.74 614.01
  Z"
/>
<path fill="#01090d" d="
  M 359.37 684.88
  Q 379.22 699.10 393.35 705.88
  C 409.81 713.77 427.10 721.11 444.87 725.48
  A 0.68 0.68 0.0 0 1 445.37 726.30
  L 441.67 741.54
  Q 441.48 742.32 440.71 742.10
  Q 421.89 736.81 403.59 729.17
  C 384.82 721.33 367.55 711.12 351.00 699.39
  C 309.53 670.00 278.82 627.43 259.18 581.33
  C 243.39 544.27 236.46 503.22 238.17 462.96
  Q 238.20 462.30 238.86 462.30
  L 255.21 462.27
  A 0.28 0.28 0.0 0 1 255.49 462.56
  C 254.36 494.16 258.17 526.73 268.29 556.53
  C 285.04 605.91 316.53 654.17 359.37 684.88
  Z"
/>
<path fill="#ffffff" d="
  M 658.48 654.61
  Q 658.42 654.75 658.36 654.87
  Q 658.35 654.88 658.24 654.76
  L 630.36 624.48
  A 0.78 0.78 0.0 0 1 630.45 623.34
  Q 642.82 613.63 653.97 602.53
  A 0.81 0.80 45.7 0 1 655.12 602.55
  L 681.73 630.89
  A 0.57 0.56 47.1 0 1 681.71 631.69
  Q 670.05 642.62 658.80 654.12
  Q 658.61 654.31 658.48 654.61
  Z"
/>
<path fill="#ffffff" d="
  M 703.87 628.68
  L 713.37 638.88
  A 0.50 0.50 0.0 0 1 713.36 639.57
  C 693.47 659.80 671.40 679.77 650.59 699.90
  Q 649.46 700.99 648.49 699.77
  L 640.28 689.44
  Q 639.87 688.93 640.35 688.48
  L 703.47 628.67
  A 0.29 0.28 -42.8 0 1 703.87 628.68
  Z"
/>
<path fill="#ffffff" d="
  M 824.12 779.68
  C 827.91 808.99 804.08 831.22 775.25 824.51
  C 764.15 821.93 759.37 816.57 750.67 807.12
  Q 709.17 761.98 667.83 716.68
  Q 664.96 713.53 662.30 710.39
  A 0.49 0.48 -41.9 0 1 662.34 709.72
  Q 688.55 685.42 714.13 660.38
  Q 715.83 658.71 717.22 656.84
  A 0.34 0.34 0.0 0 1 717.74 656.81
  C 749.54 691.02 781.96 724.75 814.12 758.63
  Q 822.55 767.52 824.12 779.68
  Z"
/>
<path fill="#01090d" d="
  M 517.83 713.37
  A 0.10 0.09 -53.7 0 0 517.94 713.35
  L 541.02 689.59
  A 0.71 0.70 47.1 0 1 542.06 689.63
  L 552.29 701.55
  Q 552.87 702.22 552.25 702.85
  L 518.02 737.91
  Q 517.72 738.22 517.43 737.91
  L 483.45 702.48
  A 0.78 0.77 -45.3 0 1 483.45 701.41
  L 494.29 690.05
  A 0.90 0.90 0.0 0 1 495.49 689.96
  Q 497.66 691.63 499.71 693.79
  Q 508.31 702.84 516.42 712.33
  Q 517.02 713.03 517.83 713.37
  Z"
/>
<path fill="#ffffff" d="
  M 646.24 741.81
  C 629.83 750.28 611.67 756.28 593.84 760.94
  A 0.58 0.58 0.0 0 1 593.11 760.40
  L 592.54 743.95
  A 0.65 0.64 79.9 0 1 592.98 743.31
  Q 598.50 741.55 603.98 739.97
  Q 620.18 735.32 635.54 728.09
  A 0.40 0.39 -32.0 0 1 636.01 728.19
  L 646.52 740.40
  A 0.92 0.91 -33.9 0 1 646.24 741.81
  Z"
/>
<path fill="#01090d" d="
  M 517.31 781.00
  A 0.70 0.69 45.8 0 0 518.32 781.02
  L 541.48 757.60
  A 1.21 1.21 0.0 0 1 543.25 757.65
  L 553.23 768.87
  A 1.24 1.23 46.4 0 1 553.19 770.55
  L 518.20 805.97
  A 0.53 0.52 45.4 0 1 517.44 805.96
  Q 502.29 789.85 487.18 774.33
  Q 485.19 772.29 483.14 770.71
  Q 482.44 770.17 483.05 769.53
  L 494.74 757.23
  A 0.36 0.36 0.0 0 1 495.26 757.23
  L 517.31 781.00
  Z"
/>
</svg>
