<?xml version="1.0" encoding="UTF-8" standalone="no"?>
<!DOCTYPE svg PUBLIC "-//W3C//DTD SVG 1.1//EN" "http://www.w3.org/Graphics/SVG/1.1/DTD/svg11.dtd">
<svg xmlns="http://www.w3.org/2000/svg" version="1.1" viewBox="0.00 0.00 1024.00 1024.00">
<rect width="100%" height="100%" fill="#0000000"/>
<g stroke-width="2.00" fill="#000" stroke-linecap="butt">
<path stroke="#868a8a" vector-effect="non-scaling-stroke" d="
  M 785.53 344.16
  A 29.74 29.74 0.0 0 0 755.79 314.42
  A 29.74 29.74 0.0 0 0 726.05 344.16
  A 29.74 29.74 0.0 0 0 755.79 373.90
  A 29.74 29.74 0.0 0 0 785.53 344.16"
/>
<path stroke="#868a8a" vector-effect="non-scaling-stroke" d="
  M 600.40 329.75
  C 600.37 320.52 594.57 314.85 585.50 314.81
  Q 573.25 314.75 561.00 314.96
  C 549.04 315.16 546.03 321.89 546.02 332.50
  Q 545.92 422.00 546.16 511.50
  Q 546.17 514.04 547.29 515.21
  Q 573.01 542.08 599.69 567.45
  A 0.62 0.62 0.0 0 0 600.74 567.01
  Q 600.83 448.12 600.40 329.75"
/>
<path stroke="#868a8a" vector-effect="non-scaling-stroke" d="
  M 449.16 434.26
  C 462.20 434.27 471.99 438.95 481.18 447.92
  Q 494.63 461.04 507.76 474.48
  Q 509.06 475.81 510.70 475.37
  Q 511.26 475.22 511.26 474.63
  Q 511.39 434.94 511.08 395.25
  C 511.01 386.18 506.55 378.81 496.75 378.80
  Q 390.65 378.72 284.55 378.76
  Q 278.58 378.76 275.68 380.15
  Q 268.78 383.47 268.65 392.51
  Q 268.47 405.75 268.59 419.00
  C 268.65 426.35 274.00 434.22 281.50 434.22
  Q 365.33 434.23 449.16 434.26"
/>
<path stroke="#868a8a" vector-effect="non-scaling-stroke" d="
  M 694.82 712.35
  C 709.53 705.60 722.40 696.58 734.69 685.82
  C 781.48 644.87 802.63 579.21 790.11 518.28
  C 785.22 494.50 776.42 471.25 762.62 451.15
  C 734.40 410.01 688.76 380.14 637.74 379.25
  Q 626.62 379.06 620.85 379.16
  A 0.58 0.58 0.0 0 0 620.28 379.74
  L 620.19 433.24
  A 0.77 0.77 0.0 0 0 620.95 434.01
  C 631.97 434.10 644.32 433.48 654.23 435.54
  C 681.40 441.19 703.15 460.35 718.25 482.76
  C 748.57 527.75 745.39 587.35 712.44 629.75
  C 695.39 651.68 674.92 665.54 647.26 670.02
  C 643.36 670.65 639.15 670.63 635.08 670.73
  C 630.39 670.83 628.11 672.11 624.97 675.22
  Q 599.58 700.33 574.63 725.70
  A 0.30 0.30 0.0 0 0 574.84 726.22
  Q 601.39 726.30 628.00 726.26
  C 650.86 726.22 673.96 721.93 694.82 712.35"
/>
<path stroke="#868a8a" vector-effect="non-scaling-stroke" d="
  M 532.87 629.55
  C 539.15 636.01 545.94 645.05 545.98 654.50
  Q 546.06 672.62 545.99 690.75
  Q 545.98 693.21 548.05 693.47
  C 552.06 693.98 555.87 687.89 557.72 685.98
  Q 573.74 669.48 589.84 653.09
  C 594.89 647.95 598.77 641.54 599.59 634.40
  C 601.03 621.85 589.58 610.50 581.49 602.51
  C 567.54 588.74 553.36 575.17 539.55 561.30
  Q 499.86 521.45 460.28 481.47
  Q 451.69 472.80 438.26 472.78
  Q 408.19 472.74 378.16 472.67
  A 0.40 0.40 0.0 0 0 377.87 473.35
  Q 379.43 474.96 381.09 476.65
  Q 423.03 519.22 465.23 561.52
  C 487.81 584.15 510.60 606.64 532.87 629.55"
/>
<path stroke="#868a8a" vector-effect="non-scaling-stroke" d="
  M 282.96 473.10
  C 274.04 473.32 268.52 479.81 268.52 488.50
  Q 268.47 549.29 268.50 610.08
  Q 268.50 619.40 270.01 623.22
  Q 273.97 633.23 287.01 633.18
  Q 298.70 633.13 310.39 633.01
  C 314.96 632.96 319.19 632.38 322.09 629.35
  Q 324.24 627.10 324.24 625.25
  Q 324.12 556.13 324.30 487.01
  Q 324.31 481.39 322.94 478.73
  Q 320.03 473.08 312.61 472.86
  Q 303.60 472.59 282.96 473.10"
/>
<path stroke="#868a8a" vector-effect="non-scaling-stroke" d="
  M 464.40 618.24
  C 464.83 617.12 465.44 615.82 464.72 614.80
  Q 461.78 610.66 455.63 604.87
  Q 441.76 591.81 428.64 578.18
  A 1.30 1.30 0.0 0 0 426.77 578.18
  L 374.94 631.48
  A 0.78 0.78 0.0 0 0 375.50 632.81
  Q 406.37 632.99 436.57 633.13
  Q 446.99 633.18 451.21 631.67
  Q 460.45 628.35 464.40 618.24"
/>
<path stroke="#868a8a" vector-effect="non-scaling-stroke" d="
  M 277.07 672.15
  C 271.84 674.35 268.52 680.09 268.52 685.75
  Q 268.51 696.77 268.49 707.78
  Q 268.48 714.58 269.66 717.54
  C 272.55 724.77 278.45 726.06 286.08 726.09
  C 354.76 726.31 423.44 726.09 492.12 726.23
  C 506.79 726.26 511.47 721.20 511.45 706.50
  Q 511.38 669.87 511.25 633.33
  A 1.25 1.25 0.0 0 0 509.17 632.39
  C 499.54 640.85 491.39 650.78 482.23 659.72
  C 473.09 668.64 463.77 671.12 451.00 671.11
  Q 368.79 671.04 286.58 671.02
  Q 279.76 671.02 277.07 672.15"
/>
</g>
<path fill="#000" d="
  M 0.00 0.00
  L 1024.00 0.00
  L 1024.00 1024.00
  L 0.00 1024.00
  L 0.00 0.00
  Z
  M 785.53 344.16
  A 29.74 29.74 0.0 0 0 755.79 314.42
  A 29.74 29.74 0.0 0 0 726.05 344.16
  A 29.74 29.74 0.0 0 0 755.79 373.90
  A 29.74 29.74 0.0 0 0 785.53 344.16
  Z
  M 600.40 329.75
  C 600.37 320.52 594.57 314.85 585.50 314.81
  Q 573.25 314.75 561.00 314.96
  C 549.04 315.16 546.03 321.89 546.02 332.50
  Q 545.92 422.00 546.16 511.50
  Q 546.17 514.04 547.29 515.21
  Q 573.01 542.08 599.69 567.45
  A 0.62 0.62 0.0 0 0 600.74 567.01
  Q 600.83 448.12 600.40 329.75
  Z
  M 449.16 434.26
  C 462.20 434.27 471.99 438.95 481.18 447.92
  Q 494.63 461.04 507.76 474.48
  Q 509.06 475.81 510.70 475.37
  Q 511.26 475.22 511.26 474.63
  Q 511.39 434.94 511.08 395.25
  C 511.01 386.18 506.55 378.81 496.75 378.80
  Q 390.65 378.72 284.55 378.76
  Q 278.58 378.76 275.68 380.15
  Q 268.78 383.47 268.65 392.51
  Q 268.47 405.75 268.59 419.00
  C 268.65 426.35 274.00 434.22 281.50 434.22
  Q 365.33 434.23 449.16 434.26
  Z
  M 694.82 712.35
  C 709.53 705.60 722.40 696.58 734.69 685.82
  C 781.48 644.87 802.63 579.21 790.11 518.28
  C 785.22 494.50 776.42 471.25 762.62 451.15
  C 734.40 410.01 688.76 380.14 637.74 379.25
  Q 626.62 379.06 620.85 379.16
  A 0.58 0.58 0.0 0 0 620.28 379.74
  L 620.19 433.24
  A 0.77 0.77 0.0 0 0 620.95 434.01
  C 631.97 434.10 644.32 433.48 654.23 435.54
  C 681.40 441.19 703.15 460.35 718.25 482.76
  C 748.57 527.75 745.39 587.35 712.44 629.75
  C 695.39 651.68 674.92 665.54 647.26 670.02
  C 643.36 670.65 639.15 670.63 635.08 670.73
  C 630.39 670.83 628.11 672.11 624.97 675.22
  Q 599.58 700.33 574.63 725.70
  A 0.30 0.30 0.0 0 0 574.84 726.22
  Q 601.39 726.30 628.00 726.26
  C 650.86 726.22 673.96 721.93 694.82 712.35
  Z
  M 532.87 629.55
  C 539.15 636.01 545.94 645.05 545.98 654.50
  Q 546.06 672.62 545.99 690.75
  Q 545.98 693.21 548.05 693.47
  C 552.06 693.98 555.87 687.89 557.72 685.98
  Q 573.74 669.48 589.84 653.09
  C 594.89 647.95 598.77 641.54 599.59 634.40
  C 601.03 621.85 589.58 610.50 581.49 602.51
  C 567.54 588.74 553.36 575.17 539.55 561.30
  Q 499.86 521.45 460.28 481.47
  Q 451.69 472.80 438.26 472.78
  Q 408.19 472.74 378.16 472.67
  A 0.40 0.40 0.0 0 0 377.87 473.35
  Q 379.43 474.96 381.09 476.65
  Q 423.03 519.22 465.23 561.52
  C 487.81 584.15 510.60 606.64 532.87 629.55
  Z
  M 282.96 473.10
  C 274.04 473.32 268.52 479.81 268.52 488.50
  Q 268.47 549.29 268.50 610.08
  Q 268.50 619.40 270.01 623.22
  Q 273.97 633.23 287.01 633.18
  Q 298.70 633.13 310.39 633.01
  C 314.96 632.96 319.19 632.38 322.09 629.35
  Q 324.24 627.10 324.24 625.25
  Q 324.12 556.13 324.30 487.01
  Q 324.31 481.39 322.94 478.73
  Q 320.03 473.08 312.61 472.86
  Q 303.60 472.59 282.96 473.10
  Z
  M 464.40 618.24
  C 464.83 617.12 465.44 615.82 464.72 614.80
  Q 461.78 610.66 455.63 604.87
  Q 441.76 591.81 428.64 578.18
  A 1.30 1.30 0.0 0 0 426.77 578.18
  L 374.94 631.48
  A 0.78 0.78 0.0 0 0 375.50 632.81
  Q 406.37 632.99 436.57 633.13
  Q 446.99 633.18 451.21 631.67
  Q 460.45 628.35 464.40 618.24
  Z
  M 277.07 672.15
  C 271.84 674.35 268.52 680.09 268.52 685.75
  Q 268.51 696.77 268.49 707.78
  Q 268.48 714.58 269.66 717.54
  C 272.55 724.77 278.45 726.06 286.08 726.09
  C 354.76 726.31 423.44 726.09 492.12 726.23
  C 506.79 726.26 511.47 721.20 511.45 706.50
  Q 511.38 669.87 511.25 633.33
  A 1.25 1.25 0.0 0 0 509.17 632.39
  C 499.54 640.85 491.39 650.78 482.23 659.72
  C 473.09 668.64 463.77 671.12 451.00 671.11
  Q 368.79 671.04 286.58 671.02
  Q 279.76 671.02 277.07 672.15
  Z"
/>
<circle fill="#ffffff" cx="755.79" cy="344.16" r="29.74"/>
<path fill="#ffffff" d="
  M 585.50 314.81
  C 594.57 314.85 600.37 320.52 600.40 329.75
  Q 600.83 448.12 600.74 567.01
  A 0.62 0.62 0.0 0 1 599.69 567.45
  Q 573.01 542.08 547.29 515.21
  Q 546.17 514.04 546.16 511.50
  Q 545.92 422.00 546.02 332.50
  C 546.03 321.89 549.04 315.16 561.00 314.96
  Q 573.25 314.75 585.50 314.81
  Z"
/>
<path fill="#ffffff" d="
  M 481.18 447.92
  C 471.99 438.95 462.20 434.27 449.16 434.26
  Q 365.33 434.23 281.50 434.22
  C 274.00 434.22 268.65 426.35 268.59 419.00
  Q 268.47 405.75 268.65 392.51
  Q 268.78 383.47 275.68 380.15
  Q 278.58 378.76 284.55 378.76
  Q 390.65 378.72 496.75 378.80
  C 506.55 378.81 511.01 386.18 511.08 395.25
  Q 511.39 434.94 511.26 474.63
  Q 511.26 475.22 510.70 475.37
  Q 509.06 475.81 507.76 474.48
  Q 494.63 461.04 481.18 447.92
  Z"
/>
<path fill="#ffffff" d="
  M 694.82 712.35
  C 673.96 721.93 650.86 726.22 628.00 726.26
  Q 601.39 726.30 574.84 726.22
  A 0.30 0.30 0.0 0 1 574.63 725.70
  Q 599.58 700.33 624.97 675.22
  C 628.11 672.11 630.39 670.83 635.08 670.73
  C 639.15 670.63 643.36 670.65 647.26 670.02
  C 674.92 665.54 695.39 651.68 712.44 629.75
  C 745.39 587.35 748.57 527.75 718.25 482.76
  C 703.15 460.35 681.40 441.19 654.23 435.54
  C 644.32 433.48 631.97 434.10 620.95 434.01
  A 0.77 0.77 0.0 0 1 620.19 433.24
  L 620.28 379.74
  A 0.58 0.58 0.0 0 1 620.85 379.16
  Q 626.62 379.06 637.74 379.25
  C 688.76 380.14 734.40 410.01 762.62 451.15
  C 776.42 471.25 785.22 494.50 790.11 518.28
  C 802.63 579.21 781.48 644.87 734.69 685.82
  C 722.40 696.58 709.53 705.60 694.82 712.35
  Z"
/>
<path fill="#ffffff" d="
  M 545.98 654.50
  C 545.94 645.05 539.15 636.01 532.87 629.55
  C 510.60 606.64 487.81 584.15 465.23 561.52
  Q 423.03 519.22 381.09 476.65
  Q 379.43 474.96 377.87 473.35
  A 0.40 0.40 0.0 0 1 378.16 472.67
  Q 408.19 472.74 438.26 472.78
  Q 451.69 472.80 460.28 481.47
  Q 499.86 521.45 539.55 561.30
  C 553.36 575.17 567.54 588.74 581.49 602.51
  C 589.58 610.50 601.03 621.85 599.59 634.40
  C 598.77 641.54 594.89 647.95 589.84 653.09
  Q 573.74 669.48 557.72 685.98
  C 555.87 687.89 552.06 693.98 548.05 693.47
  Q 545.98 693.21 545.99 690.75
  Q 546.06 672.62 545.98 654.50
  Z"
/>
<path fill="#ffffff" d="
  M 268.52 488.50
  C 268.52 479.81 274.04 473.32 282.96 473.10
  Q 303.60 472.59 312.61 472.86
  Q 320.03 473.08 322.94 478.73
  Q 324.31 481.39 324.30 487.01
  Q 324.12 556.13 324.24 625.25
  Q 324.24 627.10 322.09 629.35
  C 319.19 632.38 314.96 632.96 310.39 633.01
  Q 298.70 633.13 287.01 633.18
  Q 273.97 633.23 270.01 623.22
  Q 268.50 619.40 268.50 610.08
  Q 268.47 549.29 268.52 488.50
  Z"
/>
<path fill="#ffffff" d="
  M 464.40 618.24
  Q 460.45 628.35 451.21 631.67
  Q 446.99 633.18 436.57 633.13
  Q 406.37 632.99 375.50 632.81
  A 0.78 0.78 0.0 0 1 374.94 631.48
  L 426.77 578.18
  A 1.30 1.30 0.0 0 1 428.64 578.18
  Q 441.76 591.81 455.63 604.87
  Q 461.78 610.66 464.72 614.80
  C 465.44 615.82 464.83 617.12 464.40 618.24
  Z"
/>
<path fill="#ffffff" d="
  M 268.52 685.75
  C 268.52 680.09 271.84 674.35 277.07 672.15
  Q 279.76 671.02 286.58 671.02
  Q 368.79 671.04 451.00 671.11
  C 463.77 671.12 473.09 668.64 482.23 659.72
  C 491.39 650.78 499.54 640.85 509.17 632.39
  A 1.25 1.25 0.0 0 1 511.25 633.33
  Q 511.38 669.87 511.45 706.50
  C 511.47 721.20 506.79 726.26 492.12 726.23
  C 423.44 726.09 354.76 726.31 286.08 726.09
  C 278.45 726.06 272.55 724.77 269.66 717.54
  Q 268.48 714.58 268.49 707.78
  Q 268.51 696.77 268.52 685.75
  Z"
/>
</svg>
