<?xml version="1.0" encoding="UTF-8" standalone="no"?>
<!DOCTYPE svg PUBLIC "-//W3C//DTD SVG 1.1//EN" "http://www.w3.org/Graphics/SVG/1.1/DTD/svg11.dtd">
<svg xmlns="http://www.w3.org/2000/svg" version="1.1" viewBox="0.00 0.00 1024.00 1024.00">
<g stroke-width="2.00" fill="none" stroke-linecap="butt">
<path stroke="#80878a" vector-effect="non-scaling-stroke" d="
  M 257.24 424.06
  C 256.48 437.53 260.13 449.44 264.85 461.63
  Q 265.23 462.63 266.14 462.05
  Q 288.47 447.62 311.57 433.69
  C 315.15 431.54 320.53 427.72 325.38 425.28
  A 1.15 1.14 -13.6 0 0 326.02 424.24
  L 325.83 355.03
  Q 325.83 354.58 325.38 354.63
  Q 314.75 355.72 311.98 356.52
  Q 297.52 360.66 286.20 367.90
  Q 282.86 370.04 284.95 366.66
  Q 285.76 365.36 287.18 363.35
  Q 302.89 341.16 321.56 321.46
  C 360.44 280.44 410.65 254.47 465.05 242.25
  Q 477.96 239.36 502.99 235.77
  C 511.24 234.59 515.35 228.55 515.60 220.65
  C 515.92 210.70 510.16 203.78 499.99 204.28
  Q 441.47 207.14 387.34 232.96
  Q 361.89 245.10 342.25 259.28
  Q 318.50 276.43 305.54 288.54
  Q 278.30 314.01 255.33 348.77
  C 234.26 380.65 219.47 416.90 211.24 454.24
  Q 206.91 473.87 205.19 497.99
  C 204.71 504.80 207.82 510.44 214.92 510.79
  Q 222.18 511.15 229.45 510.80
  C 236.07 510.47 238.63 507.00 238.91 500.56
  C 240.04 474.20 246.47 449.55 255.50 424.21
  Q 255.66 423.76 255.91 423.60
  Q 256.26 423.37 256.75 423.44
  Q 257.27 423.52 257.24 424.06"
/>
<path stroke="#80878a" vector-effect="non-scaling-stroke" d="
  M 826.76 432.50
  C 806.16 359.77 759.82 298.91 697.42 256.84
  C 653.63 227.31 602.22 208.80 549.09 204.34
  Q 545.64 204.05 541.26 204.74
  C 532.06 206.19 527.28 214.30 528.73 223.02
  C 530.34 232.68 536.63 235.01 545.85 236.53
  Q 551.16 237.41 556.48 238.20
  Q 595.61 244.03 632.00 259.49
  C 681.19 280.40 723.68 315.91 755.54 359.79
  C 767.87 376.76 777.62 395.23 785.23 414.79
  C 795.87 442.19 803.05 470.39 804.15 499.42
  Q 804.35 504.70 805.57 506.83
  C 808.90 512.64 819.26 511.22 826.55 511.04
  Q 830.50 510.94 832.27 510.11
  C 835.95 508.38 838.38 503.58 838.27 499.75
  Q 837.55 474.58 831.26 448.53
  C 830.04 443.51 828.27 437.84 826.76 432.50"
/>
<path stroke="#80878a" vector-effect="non-scaling-stroke" d="
  M 489.69 432.59
  C 515.73 443.03 548.81 440.38 571.27 422.53
  C 601.59 398.44 613.50 355.26 595.10 319.62
  C 565.63 262.51 487.66 258.12 452.82 312.31
  C 438.77 334.16 436.86 363.18 446.18 387.05
  C 453.66 406.23 470.37 424.84 489.69 432.59"
/>
<path stroke="#80878a" vector-effect="non-scaling-stroke" d="
  M 675.2356 324.4876
  A 22.67 22.38 13.8 0 0 658.5584 297.3460
  A 22.67 22.38 13.8 0 0 631.2044 313.6724
  A 22.67 22.38 13.8 0 0 647.8816 340.8140
  A 22.67 22.38 13.8 0 0 675.2356 324.4876"
/>
<path stroke="#80878a" vector-effect="non-scaling-stroke" d="
  M 402.60 312.96
  C 402.52 310.09 403.30 301.59 401.18 299.56
  Q 397.39 295.96 393.66 299.67
  C 391.52 301.79 392.44 310.47 392.48 313.43
  A 0.63 0.63 0.0 0 1 391.83 314.07
  Q 386.05 313.91 380.14 314.01
  C 372.09 314.15 372.37 324.01 379.50 324.11
  Q 385.77 324.21 391.97 324.24
  Q 392.49 324.24 392.49 324.76
  L 392.49 335.47
  A 4.82 4.82 0.0 0 0 397.47 340.28
  L 398.74 340.24
  A 3.77 3.75 -0.9 0 0 402.37 336.51
  L 402.45 325.44
  Q 402.46 324.05 403.85 324.07
  C 407.35 324.12 414.65 324.83 417.59 323.17
  C 420.55 321.49 420.70 316.71 417.75 314.89
  C 414.99 313.19 406.93 313.87 403.55 313.88
  A 0.94 0.94 0.0 0 1 402.60 312.96"
/>
<path stroke="#316975" vector-effect="non-scaling-stroke" d="
  M 386.21 374.54
  C 372.24 364.04 357.67 355.98 339.78 355.00
  A 0.71 0.71 0.0 0 0 339.03 355.70
  L 338.94 414.41
  A 0.32 0.32 0.0 0 0 339.47 414.66
  C 355.13 401.98 371.37 390.10 386.30 376.37
  A 1.19 1.19 0.0 0 0 386.21 374.54"
/>
<path stroke="#316975" vector-effect="non-scaling-stroke" d="
  M 661.82 426.22
  C 659.84 456.58 688.61 479.25 717.49 472.99
  C 722.22 471.97 727.44 469.75 732.21 467.84
  A 0.57 0.57 0.0 0 0 732.44 466.95
  L 699.02 426.74"
/>
<path stroke="#80878a" vector-effect="non-scaling-stroke" d="
  M 699.02 426.74
  L 704.48 426.54
  Q 705.01 426.52 705.01 425.99
  L 704.95 358.75
  A 0.47 0.47 0.0 0 0 704.49 358.28
  C 672.28 357.24 642.53 379.83 634.77 411.75
  C 625.56 449.62 647.40 487.93 684.47 499.83
  Q 702.59 505.65 722.00 502.25
  Q 726.60 501.45 736.76 498.43
  C 737.71 498.15 738.90 498.14 739.75 498.30
  Q 757.39 501.48 775.23 503.26
  Q 778.70 503.61 778.68 500.51
  Q 778.64 491.94 778.52 483.37
  Q 778.51 482.27 778.05 481.70
  Q 765.36 466.00 751.11 451.65
  Q 750.79 451.33 750.44 451.61
  L 741.84 458.74
  A 0.59 0.58 -33.6 0 0 741.69 459.45
  Q 742.91 461.88 744.10 463.39
  Q 752.97 474.63 762.71 485.64
  A 0.57 0.56 59.4 0 1 762.48 486.55
  Q 762.07 486.70 761.24 486.53
  Q 748.76 484.07 736.12 482.60
  Q 734.64 482.43 734.20 482.60
  C 717.15 488.89 702.96 489.95 685.71 483.90
  C 663.48 476.10 647.94 453.14 647.52 429.82
  C 647.35 420.34 649.78 407.16 655.96 399.47
  C 661.54 392.53 671.30 400.90 667.70 407.19
  Q 662.57 416.14 661.82 426.22"
/>
<path stroke="#b0e1ea" vector-effect="non-scaling-stroke" d="
  M 699.02 426.74
  Q 697.02 426.96 694.34 426.79
  C 685.12 426.21 675.66 426.66 666.40 426.45
  Q 665.65 426.43 664.12 426.61
  Q 662.37 426.82 661.82 426.22"
/>
<path stroke="#80878a" vector-effect="non-scaling-stroke" d="
  M 403.57 457.05
  C 413.22 435.16 411.48 405.33 396.60 385.98
  Q 396.23 385.50 395.81 385.92
  C 395.13 386.61 394.56 387.58 393.89 388.12
  Q 371.27 406.26 348.64 424.37
  Q 345.36 427.00 341.99 429.45
  Q 341.59 429.74 341.88 430.14
  L 381.86 484.59
  Q 382.75 485.81 383.87 484.79
  Q 396.38 473.36 403.57 457.05"
/>
<path stroke="#80878a" vector-effect="non-scaling-stroke" d="
  M 361.12 498.46
  Q 365.08 496.91 368.97 494.47
  A 1.26 1.26 0.0 0 0 369.37 492.74
  Q 363.65 483.57 357.07 474.65
  Q 343.29 456.00 329.93 436.85
  A 0.36 0.36 0.0 0 0 329.38 436.80
  Q 327.11 438.94 324.40 440.68
  C 307.07 451.78 289.53 462.70 272.65 474.49
  A 0.53 0.53 0.0 0 0 272.55 475.26
  Q 278.00 481.75 284.38 487.37
  C 305.29 505.78 335.51 508.48 361.12 498.46"
/>
<path stroke="#80878a" vector-effect="non-scaling-stroke" d="
  M 598.62 485.39
  C 579.90 477.09 561.12 468.88 542.18 461.10
  C 528.19 455.35 513.44 455.85 499.49 461.79
  Q 469.31 474.65 439.20 487.69
  C 415.03 498.16 399.21 514.88 394.47 541.48
  A 0.33 0.33 0.0 0 0 394.79 541.87
  L 647.96 541.81
  A 0.35 0.35 0.0 0 0 648.31 541.41
  C 645.05 520.88 632.66 503.79 614.72 493.53
  Q 606.88 489.05 598.62 485.39"
/>
<path stroke="#80878a" vector-effect="non-scaling-stroke" d="
  M 373.21 533.98
  A 8.10 8.10 0.0 0 0 365.11 525.88
  L 208.93 525.88
  A 8.10 8.10 0.0 0 0 200.83 533.98
  L 200.83 534.18
  A 8.10 8.10 0.0 0 0 208.93 542.28
  L 365.11 542.28
  A 8.10 8.10 0.0 0 0 373.21 534.18
  L 373.21 533.98"
/>
<path stroke="#80878a" vector-effect="non-scaling-stroke" d="
  M 832.25 542.21
  C 845.53 542.19 844.45 525.78 831.25 525.77
  Q 754.63 525.70 678.00 525.93
  C 670.66 525.96 665.85 533.22 670.92 539.34
  Q 673.32 542.23 676.50 542.23
  Q 754.38 542.30 832.25 542.21"
/>
<path stroke="#80878a" vector-effect="non-scaling-stroke" d="
  M 241.9970 580.9593
  A 16.18 15.98 2.3 0 0 226.4713 564.3429
  A 16.18 15.98 2.3 0 0 209.6630 579.6607
  A 16.18 15.98 2.3 0 0 225.1887 596.2771
  A 16.18 15.98 2.3 0 0 241.9970 580.9593"
/>
<path stroke="#80878a" vector-effect="non-scaling-stroke" d="
  M 660.75 764.73
  Q 660.59 763.96 660.59 762.74
  C 660.51 704.38 660.64 646.02 660.26 587.67
  Q 660.21 580.19 658.77 576.55
  C 654.53 565.80 641.45 561.13 631.03 565.77
  C 618.14 571.51 619.02 584.55 619.02 596.50
  Q 619.03 690.82 619.01 784.71
  A 1.54 1.54 0.0 0 1 617.93 786.18
  L 593.52 794.04
  A 0.66 0.65 -9.1 0 1 592.66 793.42
  Q 592.92 735.97 592.54 678.79
  Q 592.50 673.63 591.59 670.81
  C 585.47 651.96 559.82 651.36 552.75 669.54
  Q 551.49 672.78 551.48 678.13
  Q 551.34 740.57 551.53 802.93
  A 0.45 0.44 -3.7 0 1 551.14 803.37
  Q 546.18 803.98 541.07 804.77
  C 522.62 807.64 524.46 838.82 546.01 836.76
  C 567.61 834.69 590.23 830.83 611.50 824.03
  C 680.35 802.05 744.88 758.89 787.12 699.63
  C 791.37 693.68 793.21 687.71 789.51 680.93
  Q 784.15 671.13 773.16 671.18
  C 767.41 671.21 764.09 675.41 760.76 679.99
  Q 746.86 699.11 729.88 714.35
  Q 728.62 715.48 728.61 713.79
  Q 728.52 667.98 728.48 623.00
  Q 728.48 615.86 727.11 612.17
  C 722.55 599.83 706.50 593.78 695.58 602.09
  C 688.72 607.30 686.99 614.24 687.00 622.50
  Q 687.03 686.14 686.87 749.75
  Q 686.87 750.33 686.38 750.65
  Q 674.48 758.63 661.76 765.21
  Q 660.93 765.64 660.75 764.73"
/>
<path stroke="#80878a" vector-effect="non-scaling-stroke" d="
  M 833.7410 579.7196
  A 16.30 15.87 -1.9 0 0 816.9238 564.3987
  A 16.30 15.87 -1.9 0 0 801.1590 580.8004
  A 16.30 15.87 -1.9 0 0 817.9762 596.1213
  A 16.30 15.87 -1.9 0 0 833.7410 579.7196"
/>
<path stroke="#80878a" vector-effect="non-scaling-stroke" d="
  M 290.38 631.43
  A 4.02 3.93 56.7 0 0 292.03 631.79
  Q 299.91 631.80 308.39 631.75
  C 316.04 631.70 317.93 626.55 317.97 619.59
  Q 318.10 598.05 317.98 576.50
  C 317.91 563.36 305.66 564.96 295.67 565.40
  C 287.85 565.74 285.22 569.80 285.22 577.52
  Q 285.21 599.22 285.13 620.89
  C 285.11 626.12 285.65 629.25 290.38 631.43"
/>
<path stroke="#316975" vector-effect="non-scaling-stroke" d="
  M 371.2605 575.2592
  A 9.76 9.76 0.0 0 0 361.5176 565.4822
  L 347.5576 565.4578
  A 9.76 9.76 0.0 0 0 337.7806 575.2008
  L 337.7595 587.2808
  A 9.76 9.76 0.0 0 0 347.5024 597.0578
  L 361.4624 597.0822
  A 9.76 9.76 0.0 0 0 371.2394 587.3392
  L 371.2605 575.2592"
/>
<path stroke="#316975" vector-effect="non-scaling-stroke" d="
  M 423.9588 574.6462
  A 8.98 8.98 0.0 0 0 415.0575 565.5881
  L 399.5781 565.4531
  A 8.98 8.98 0.0 0 0 390.5201 574.3544
  L 390.4012 587.9738
  A 8.98 8.98 0.0 0 0 399.3025 597.0319
  L 414.7819 597.1669
  A 8.98 8.98 0.0 0 0 423.8399 588.2656
  L 423.9588 574.6462"
/>
<path stroke="#316975" vector-effect="non-scaling-stroke" d="
  M 451.21 596.72
  L 470.41 596.76
  A 7.70 7.70 0.0 0 0 478.13 589.07
  L 478.15 576.22
  A 10.73 10.51 -89.9 0 0 467.66 565.47
  L 454.08 565.45
  A 10.73 10.51 -89.9 0 0 443.55 576.16
  L 443.53 589.01
  A 7.70 7.70 0.0 0 0 451.21 596.72"
/>
<path stroke="#316975" vector-effect="non-scaling-stroke" d="
  M 478.18 800.96
  Q 478.31 793.73 478.33 786.50
  Q 478.51 724.57 478.25 662.64
  C 478.22 654.90 475.00 651.82 467.05 651.75
  Q 459.40 651.68 451.75 651.66
  C 445.99 651.64 443.72 657.31 443.72 662.16
  C 443.76 703.18 443.44 744.23 443.30 785.25
  Q 443.29 788.80 443.33 792.55"
/>
<path stroke="#80878a" vector-effect="non-scaling-stroke" d="
  M 443.33 792.55
  L 424.08 786.07"
/>
<path stroke="#316975" vector-effect="non-scaling-stroke" d="
  M 424.08 786.07
  Q 423.85 747.37 423.82 709.06
  C 423.81 701.66 425.81 691.20 418.33 687.06
  C 414.02 684.67 404.61 685.78 399.25 685.76
  C 393.35 685.74 389.72 692.05 389.71 697.25
  Q 389.69 733.68 389.75 770.03"
/>
<path stroke="#80878a" vector-effect="non-scaling-stroke" d="
  M 389.75 770.03
  L 371.50 759.50"
/>
<path stroke="#316975" vector-effect="non-scaling-stroke" d="
  M 371.50 759.50
  C 371.52 757.15 371.26 754.63 371.27 752.51
  Q 371.49 726.19 371.49 699.89
  Q 371.49 694.46 370.16 691.87
  C 366.36 684.43 358.66 685.77 351.53 685.74
  Q 345.71 685.73 343.18 687.11
  C 337.98 689.95 337.28 695.21 337.35 700.75
  Q 337.55 717.02 336.87 734.41"
/>
<path stroke="#80878a" vector-effect="non-scaling-stroke" d="
  M 336.87 734.41
  L 317.62 717.48"
/>
<path stroke="#316975" vector-effect="non-scaling-stroke" d="
  M 317.62 717.48
  Q 317.90 701.85 317.54 696.25
  Q 317.15 690.13 312.49 687.35
  Q 309.83 685.76 304.49 685.71
  Q 295.45 685.64 286.75 686.45"
/>
<path stroke="#80878a" vector-effect="non-scaling-stroke" d="
  M 286.75 686.45
  C 278.08 684.75 270.18 686.89 266.04 695.05
  C 262.61 701.78 265.81 708.67 269.56 713.44
  C 283.57 731.20 299.58 748.19 319.90 764.84
  Q 351.66 790.88 393.58 810.19
  Q 402.14 814.13 415.51 818.79
  Q 457.08 833.27 499.01 836.81
  C 505.75 837.38 511.95 835.11 514.75 828.96
  Q 516.09 826.03 516.20 818.36
  C 517.30 737.37 516.38 656.35 516.47 575.35
  C 516.47 571.61 515.69 567.71 512.44 566.09
  Q 509.13 564.43 505.77 565.88
  C 501.78 567.60 500.82 570.60 500.79 574.75
  C 500.24 651.16 500.86 727.54 500.61 803.96
  A 0.76 0.76 0.0 0 1 499.77 804.71
  Q 489.24 803.54 478.63 801.39
  Q 478.16 801.30 478.18 800.96"
/>
<path stroke="#b0e1ea" vector-effect="non-scaling-stroke" d="
  M 286.75 686.45
  Q 290.79 688.80 293.60 692.15
  Q 305.68 706.55 317.62 717.48"
/>
<path stroke="#b0e1ea" vector-effect="non-scaling-stroke" d="
  M 336.87 734.41
  Q 350.14 745.02 365.66 756.10
  Q 368.44 758.09 371.50 759.50"
/>
<path stroke="#b0e1ea" vector-effect="non-scaling-stroke" d="
  M 389.75 770.03
  Q 406.24 778.82 424.08 786.07"
/>
<path stroke="#b0e1ea" vector-effect="non-scaling-stroke" d="
  M 443.33 792.55
  Q 459.57 797.39 476.25 800.98
  Q 476.87 801.11 478.18 800.96"
/>
<path stroke="#80878a" vector-effect="non-scaling-stroke" d="
  M 263.26 622.06
  A 7.53 7.53 0.0 0 0 255.73 614.53
  L 227.25 614.53
  A 7.53 7.53 0.0 0 0 219.72 622.06
  L 219.72 622.66
  A 7.53 7.53 0.0 0 0 227.25 630.19
  L 255.73 630.19
  A 7.53 7.53 0.0 0 0 263.26 622.66
  L 263.26 622.06"
/>
<path stroke="#80878a" vector-effect="non-scaling-stroke" d="
  M 822.6903 622.2382
  A 7.63 7.63 0.0 0 0 815.0736 614.5949
  L 763.6537 614.5051
  A 7.63 7.63 0.0 0 0 756.0104 622.1218
  L 756.0097 622.5418
  A 7.63 7.63 0.0 0 0 763.6264 630.1851
  L 815.0463 630.2749
  A 7.63 7.63 0.0 0 0 822.6896 622.6582
  L 822.6903 622.2382"
/>
<path stroke="#316975" vector-effect="non-scaling-stroke" d="
  M 371.5158 622.1212
  A 7.42 7.42 0.0 0 0 364.0700 614.7271
  L 345.2101 614.7930
  A 7.42 7.42 0.0 0 0 337.8160 622.2388
  L 337.8242 624.5788
  A 7.42 7.42 0.0 0 0 345.2700 631.9729
  L 364.1299 631.9070
  A 7.42 7.42 0.0 0 0 371.5240 624.4612
  L 371.5158 622.1212"
/>
<path stroke="#316975" vector-effect="non-scaling-stroke" d="
  M 424.07 622.23
  A 7.49 7.49 0.0 0 0 416.58 614.74
  L 397.50 614.74
  A 7.49 7.49 0.0 0 0 390.01 622.23
  L 390.01 624.29
  A 7.49 7.49 0.0 0 0 397.50 631.78
  L 416.58 631.78
  A 7.49 7.49 0.0 0 0 424.07 624.29
  L 424.07 622.23"
/>
<path stroke="#316975" vector-effect="non-scaling-stroke" d="
  M 478.2287 622.5293
  A 7.75 7.75 0.0 0 0 470.4652 614.7929
  L 450.8252 614.8272
  A 7.75 7.75 0.0 0 0 443.0888 622.5907
  L 443.0913 624.0307
  A 7.75 7.75 0.0 0 0 450.8548 631.7671
  L 470.4948 631.7328
  A 7.75 7.75 0.0 0 0 478.2312 623.9693
  L 478.2287 622.5293"
/>
<path stroke="#80878a" vector-effect="non-scaling-stroke" d="
  M 318.63 659.07
  A 7.36 7.36 0.0 0 0 311.27 651.71
  L 291.35 651.71
  A 7.36 7.36 0.0 0 0 283.99 659.07
  L 283.99 659.75
  A 7.36 7.36 0.0 0 0 291.35 667.11
  L 311.27 667.11
  A 7.36 7.36 0.0 0 0 318.63 659.75
  L 318.63 659.07"
/>
<path stroke="#80878a" vector-effect="non-scaling-stroke" d="
  M 423.54 659.30
  A 7.57 7.57 0.0 0 0 415.97 651.73
  L 346.13 651.73
  A 7.57 7.57 0.0 0 0 338.56 659.30
  L 338.56 659.62
  A 7.57 7.57 0.0 0 0 346.13 667.19
  L 415.97 667.19
  A 7.57 7.57 0.0 0 0 423.54 659.62
  L 423.54 659.30"
/>
</g>
<path fill="#000f15" d="
  M 0.00 0.00
  L 1024.00 0.00
  L 1024.00 1024.00
  L 0.00 1024.00
  L 0.00 0.00
  Z
  M 257.24 424.06
  C 256.48 437.53 260.13 449.44 264.85 461.63
  Q 265.23 462.63 266.14 462.05
  Q 288.47 447.62 311.57 433.69
  C 315.15 431.54 320.53 427.72 325.38 425.28
  A 1.15 1.14 -13.6 0 0 326.02 424.24
  L 325.83 355.03
  Q 325.83 354.58 325.38 354.63
  Q 314.75 355.72 311.98 356.52
  Q 297.52 360.66 286.20 367.90
  Q 282.86 370.04 284.95 366.66
  Q 285.76 365.36 287.18 363.35
  Q 302.89 341.16 321.56 321.46
  C 360.44 280.44 410.65 254.47 465.05 242.25
  Q 477.96 239.36 502.99 235.77
  C 511.24 234.59 515.35 228.55 515.60 220.65
  C 515.92 210.70 510.16 203.78 499.99 204.28
  Q 441.47 207.14 387.34 232.96
  Q 361.89 245.10 342.25 259.28
  Q 318.50 276.43 305.54 288.54
  Q 278.30 314.01 255.33 348.77
  C 234.26 380.65 219.47 416.90 211.24 454.24
  Q 206.91 473.87 205.19 497.99
  C 204.71 504.80 207.82 510.44 214.92 510.79
  Q 222.18 511.15 229.45 510.80
  C 236.07 510.47 238.63 507.00 238.91 500.56
  C 240.04 474.20 246.47 449.55 255.50 424.21
  Q 255.66 423.76 255.91 423.60
  Q 256.26 423.37 256.75 423.44
  Q 257.27 423.52 257.24 424.06
  Z
  M 826.76 432.50
  C 806.16 359.77 759.82 298.91 697.42 256.84
  C 653.63 227.31 602.22 208.80 549.09 204.34
  Q 545.64 204.05 541.26 204.74
  C 532.06 206.19 527.28 214.30 528.73 223.02
  C 530.34 232.68 536.63 235.01 545.85 236.53
  Q 551.16 237.41 556.48 238.20
  Q 595.61 244.03 632.00 259.49
  C 681.19 280.40 723.68 315.91 755.54 359.79
  C 767.87 376.76 777.62 395.23 785.23 414.79
  C 795.87 442.19 803.05 470.39 804.15 499.42
  Q 804.35 504.70 805.57 506.83
  C 808.90 512.64 819.26 511.22 826.55 511.04
  Q 830.50 510.94 832.27 510.11
  C 835.95 508.38 838.38 503.58 838.27 499.75
  Q 837.55 474.58 831.26 448.53
  C 830.04 443.51 828.27 437.84 826.76 432.50
  Z
  M 489.69 432.59
  C 515.73 443.03 548.81 440.38 571.27 422.53
  C 601.59 398.44 613.50 355.26 595.10 319.62
  C 565.63 262.51 487.66 258.12 452.82 312.31
  C 438.77 334.16 436.86 363.18 446.18 387.05
  C 453.66 406.23 470.37 424.84 489.69 432.59
  Z
  M 675.2356 324.4876
  A 22.67 22.38 13.8 0 0 658.5584 297.3460
  A 22.67 22.38 13.8 0 0 631.2044 313.6724
  A 22.67 22.38 13.8 0 0 647.8816 340.8140
  A 22.67 22.38 13.8 0 0 675.2356 324.4876
  Z
  M 402.60 312.96
  C 402.52 310.09 403.30 301.59 401.18 299.56
  Q 397.39 295.96 393.66 299.67
  C 391.52 301.79 392.44 310.47 392.48 313.43
  A 0.63 0.63 0.0 0 1 391.83 314.07
  Q 386.05 313.91 380.14 314.01
  C 372.09 314.15 372.37 324.01 379.50 324.11
  Q 385.77 324.21 391.97 324.24
  Q 392.49 324.24 392.49 324.76
  L 392.49 335.47
  A 4.82 4.82 0.0 0 0 397.47 340.28
  L 398.74 340.24
  A 3.77 3.75 -0.9 0 0 402.37 336.51
  L 402.45 325.44
  Q 402.46 324.05 403.85 324.07
  C 407.35 324.12 414.65 324.83 417.59 323.17
  C 420.55 321.49 420.70 316.71 417.75 314.89
  C 414.99 313.19 406.93 313.87 403.55 313.88
  A 0.94 0.94 0.0 0 1 402.60 312.96
  Z
  M 386.21 374.54
  C 372.24 364.04 357.67 355.98 339.78 355.00
  A 0.71 0.71 0.0 0 0 339.03 355.70
  L 338.94 414.41
  A 0.32 0.32 0.0 0 0 339.47 414.66
  C 355.13 401.98 371.37 390.10 386.30 376.37
  A 1.19 1.19 0.0 0 0 386.21 374.54
  Z
  M 661.82 426.22
  C 659.84 456.58 688.61 479.25 717.49 472.99
  C 722.22 471.97 727.44 469.75 732.21 467.84
  A 0.57 0.57 0.0 0 0 732.44 466.95
  L 699.02 426.74
  L 704.48 426.54
  Q 705.01 426.52 705.01 425.99
  L 704.95 358.75
  A 0.47 0.47 0.0 0 0 704.49 358.28
  C 672.28 357.24 642.53 379.83 634.77 411.75
  C 625.56 449.62 647.40 487.93 684.47 499.83
  Q 702.59 505.65 722.00 502.25
  Q 726.60 501.45 736.76 498.43
  C 737.71 498.15 738.90 498.14 739.75 498.30
  Q 757.39 501.48 775.23 503.26
  Q 778.70 503.61 778.68 500.51
  Q 778.64 491.94 778.52 483.37
  Q 778.51 482.27 778.05 481.70
  Q 765.36 466.00 751.11 451.65
  Q 750.79 451.33 750.44 451.61
  L 741.84 458.74
  A 0.59 0.58 -33.6 0 0 741.69 459.45
  Q 742.91 461.88 744.10 463.39
  Q 752.97 474.63 762.71 485.64
  A 0.57 0.56 59.4 0 1 762.48 486.55
  Q 762.07 486.70 761.24 486.53
  Q 748.76 484.07 736.12 482.60
  Q 734.64 482.43 734.20 482.60
  C 717.15 488.89 702.96 489.95 685.71 483.90
  C 663.48 476.10 647.94 453.14 647.52 429.82
  C 647.35 420.34 649.78 407.16 655.96 399.47
  C 661.54 392.53 671.30 400.90 667.70 407.19
  Q 662.57 416.14 661.82 426.22
  Z
  M 403.57 457.05
  C 413.22 435.16 411.48 405.33 396.60 385.98
  Q 396.23 385.50 395.81 385.92
  C 395.13 386.61 394.56 387.58 393.89 388.12
  Q 371.27 406.26 348.64 424.37
  Q 345.36 427.00 341.99 429.45
  Q 341.59 429.74 341.88 430.14
  L 381.86 484.59
  Q 382.75 485.81 383.87 484.79
  Q 396.38 473.36 403.57 457.05
  Z
  M 361.12 498.46
  Q 365.08 496.91 368.97 494.47
  A 1.26 1.26 0.0 0 0 369.37 492.74
  Q 363.65 483.57 357.07 474.65
  Q 343.29 456.00 329.93 436.85
  A 0.36 0.36 0.0 0 0 329.38 436.80
  Q 327.11 438.94 324.40 440.68
  C 307.07 451.78 289.53 462.70 272.65 474.49
  A 0.53 0.53 0.0 0 0 272.55 475.26
  Q 278.00 481.75 284.38 487.37
  C 305.29 505.78 335.51 508.48 361.12 498.46
  Z
  M 598.62 485.39
  C 579.90 477.09 561.12 468.88 542.18 461.10
  C 528.19 455.35 513.44 455.85 499.49 461.79
  Q 469.31 474.65 439.20 487.69
  C 415.03 498.16 399.21 514.88 394.47 541.48
  A 0.33 0.33 0.0 0 0 394.79 541.87
  L 647.96 541.81
  A 0.35 0.35 0.0 0 0 648.31 541.41
  C 645.05 520.88 632.66 503.79 614.72 493.53
  Q 606.88 489.05 598.62 485.39
  Z
  M 373.21 533.98
  A 8.10 8.10 0.0 0 0 365.11 525.88
  L 208.93 525.88
  A 8.10 8.10 0.0 0 0 200.83 533.98
  L 200.83 534.18
  A 8.10 8.10 0.0 0 0 208.93 542.28
  L 365.11 542.28
  A 8.10 8.10 0.0 0 0 373.21 534.18
  L 373.21 533.98
  Z
  M 832.25 542.21
  C 845.53 542.19 844.45 525.78 831.25 525.77
  Q 754.63 525.70 678.00 525.93
  C 670.66 525.96 665.85 533.22 670.92 539.34
  Q 673.32 542.23 676.50 542.23
  Q 754.38 542.30 832.25 542.21
  Z
  M 241.9970 580.9593
  A 16.18 15.98 2.3 0 0 226.4713 564.3429
  A 16.18 15.98 2.3 0 0 209.6630 579.6607
  A 16.18 15.98 2.3 0 0 225.1887 596.2771
  A 16.18 15.98 2.3 0 0 241.9970 580.9593
  Z
  M 660.75 764.73
  Q 660.59 763.96 660.59 762.74
  C 660.51 704.38 660.64 646.02 660.26 587.67
  Q 660.21 580.19 658.77 576.55
  C 654.53 565.80 641.45 561.13 631.03 565.77
  C 618.14 571.51 619.02 584.55 619.02 596.50
  Q 619.03 690.82 619.01 784.71
  A 1.54 1.54 0.0 0 1 617.93 786.18
  L 593.52 794.04
  A 0.66 0.65 -9.1 0 1 592.66 793.42
  Q 592.92 735.97 592.54 678.79
  Q 592.50 673.63 591.59 670.81
  C 585.47 651.96 559.82 651.36 552.75 669.54
  Q 551.49 672.78 551.48 678.13
  Q 551.34 740.57 551.53 802.93
  A 0.45 0.44 -3.7 0 1 551.14 803.37
  Q 546.18 803.98 541.07 804.77
  C 522.62 807.64 524.46 838.82 546.01 836.76
  C 567.61 834.69 590.23 830.83 611.50 824.03
  C 680.35 802.05 744.88 758.89 787.12 699.63
  C 791.37 693.68 793.21 687.71 789.51 680.93
  Q 784.15 671.13 773.16 671.18
  C 767.41 671.21 764.09 675.41 760.76 679.99
  Q 746.86 699.11 729.88 714.35
  Q 728.62 715.48 728.61 713.79
  Q 728.52 667.98 728.48 623.00
  Q 728.48 615.86 727.11 612.17
  C 722.55 599.83 706.50 593.78 695.58 602.09
  C 688.72 607.30 686.99 614.24 687.00 622.50
  Q 687.03 686.14 686.87 749.75
  Q 686.87 750.33 686.38 750.65
  Q 674.48 758.63 661.76 765.21
  Q 660.93 765.64 660.75 764.73
  Z
  M 833.7410 579.7196
  A 16.30 15.87 -1.9 0 0 816.9238 564.3987
  A 16.30 15.87 -1.9 0 0 801.1590 580.8004
  A 16.30 15.87 -1.9 0 0 817.9762 596.1213
  A 16.30 15.87 -1.9 0 0 833.7410 579.7196
  Z
  M 290.38 631.43
  A 4.02 3.93 56.7 0 0 292.03 631.79
  Q 299.91 631.80 308.39 631.75
  C 316.04 631.70 317.93 626.55 317.97 619.59
  Q 318.10 598.05 317.98 576.50
  C 317.91 563.36 305.66 564.96 295.67 565.40
  C 287.85 565.74 285.22 569.80 285.22 577.52
  Q 285.21 599.22 285.13 620.89
  C 285.11 626.12 285.65 629.25 290.38 631.43
  Z
  M 371.2605 575.2592
  A 9.76 9.76 0.0 0 0 361.5176 565.4822
  L 347.5576 565.4578
  A 9.76 9.76 0.0 0 0 337.7806 575.2008
  L 337.7595 587.2808
  A 9.76 9.76 0.0 0 0 347.5024 597.0578
  L 361.4624 597.0822
  A 9.76 9.76 0.0 0 0 371.2394 587.3392
  L 371.2605 575.2592
  Z
  M 423.9588 574.6462
  A 8.98 8.98 0.0 0 0 415.0575 565.5881
  L 399.5781 565.4531
  A 8.98 8.98 0.0 0 0 390.5201 574.3544
  L 390.4012 587.9738
  A 8.98 8.98 0.0 0 0 399.3025 597.0319
  L 414.7819 597.1669
  A 8.98 8.98 0.0 0 0 423.8399 588.2656
  L 423.9588 574.6462
  Z
  M 451.21 596.72
  L 470.41 596.76
  A 7.70 7.70 0.0 0 0 478.13 589.07
  L 478.15 576.22
  A 10.73 10.51 -89.9 0 0 467.66 565.47
  L 454.08 565.45
  A 10.73 10.51 -89.9 0 0 443.55 576.16
  L 443.53 589.01
  A 7.70 7.70 0.0 0 0 451.21 596.72
  Z
  M 478.18 800.96
  Q 478.31 793.73 478.33 786.50
  Q 478.51 724.57 478.25 662.64
  C 478.22 654.90 475.00 651.82 467.05 651.75
  Q 459.40 651.68 451.75 651.66
  C 445.99 651.64 443.72 657.31 443.72 662.16
  C 443.76 703.18 443.44 744.23 443.30 785.25
  Q 443.29 788.80 443.33 792.55
  L 424.08 786.07
  Q 423.85 747.37 423.82 709.06
  C 423.81 701.66 425.81 691.20 418.33 687.06
  C 414.02 684.67 404.61 685.78 399.25 685.76
  C 393.35 685.74 389.72 692.05 389.71 697.25
  Q 389.69 733.68 389.75 770.03
  L 371.50 759.50
  C 371.52 757.15 371.26 754.63 371.27 752.51
  Q 371.49 726.19 371.49 699.89
  Q 371.49 694.46 370.16 691.87
  C 366.36 684.43 358.66 685.77 351.53 685.74
  Q 345.71 685.73 343.18 687.11
  C 337.98 689.95 337.28 695.21 337.35 700.75
  Q 337.55 717.02 336.87 734.41
  L 317.62 717.48
  Q 317.90 701.85 317.54 696.25
  Q 317.15 690.13 312.49 687.35
  Q 309.83 685.76 304.49 685.71
  Q 295.45 685.64 286.75 686.45
  C 278.08 684.75 270.18 686.89 266.04 695.05
  C 262.61 701.78 265.81 708.67 269.56 713.44
  C 283.57 731.20 299.58 748.19 319.90 764.84
  Q 351.66 790.88 393.58 810.19
  Q 402.14 814.13 415.51 818.79
  Q 457.08 833.27 499.01 836.81
  C 505.75 837.38 511.95 835.11 514.75 828.96
  Q 516.09 826.03 516.20 818.36
  C 517.30 737.37 516.38 656.35 516.47 575.35
  C 516.47 571.61 515.69 567.71 512.44 566.09
  Q 509.13 564.43 505.77 565.88
  C 501.78 567.60 500.82 570.60 500.79 574.75
  C 500.24 651.16 500.86 727.54 500.61 803.96
  A 0.76 0.76 0.0 0 1 499.77 804.71
  Q 489.24 803.54 478.63 801.39
  Q 478.16 801.30 478.18 800.96
  Z
  M 263.26 622.06
  A 7.53 7.53 0.0 0 0 255.73 614.53
  L 227.25 614.53
  A 7.53 7.53 0.0 0 0 219.72 622.06
  L 219.72 622.66
  A 7.53 7.53 0.0 0 0 227.25 630.19
  L 255.73 630.19
  A 7.53 7.53 0.0 0 0 263.26 622.66
  L 263.26 622.06
  Z
  M 822.6903 622.2382
  A 7.63 7.63 0.0 0 0 815.0736 614.5949
  L 763.6537 614.5051
  A 7.63 7.63 0.0 0 0 756.0104 622.1218
  L 756.0097 622.5418
  A 7.63 7.63 0.0 0 0 763.6264 630.1851
  L 815.0463 630.2749
  A 7.63 7.63 0.0 0 0 822.6896 622.6582
  L 822.6903 622.2382
  Z
  M 371.5158 622.1212
  A 7.42 7.42 0.0 0 0 364.0700 614.7271
  L 345.2101 614.7930
  A 7.42 7.42 0.0 0 0 337.8160 622.2388
  L 337.8242 624.5788
  A 7.42 7.42 0.0 0 0 345.2700 631.9729
  L 364.1299 631.9070
  A 7.42 7.42 0.0 0 0 371.5240 624.4612
  L 371.5158 622.1212
  Z
  M 424.07 622.23
  A 7.49 7.49 0.0 0 0 416.58 614.74
  L 397.50 614.74
  A 7.49 7.49 0.0 0 0 390.01 622.23
  L 390.01 624.29
  A 7.49 7.49 0.0 0 0 397.50 631.78
  L 416.58 631.78
  A 7.49 7.49 0.0 0 0 424.07 624.29
  L 424.07 622.23
  Z
  M 478.2287 622.5293
  A 7.75 7.75 0.0 0 0 470.4652 614.7929
  L 450.8252 614.8272
  A 7.75 7.75 0.0 0 0 443.0888 622.5907
  L 443.0913 624.0307
  A 7.75 7.75 0.0 0 0 450.8548 631.7671
  L 470.4948 631.7328
  A 7.75 7.75 0.0 0 0 478.2312 623.9693
  L 478.2287 622.5293
  Z
  M 318.63 659.07
  A 7.36 7.36 0.0 0 0 311.27 651.71
  L 291.35 651.71
  A 7.36 7.36 0.0 0 0 283.99 659.07
  L 283.99 659.75
  A 7.36 7.36 0.0 0 0 291.35 667.11
  L 311.27 667.11
  A 7.36 7.36 0.0 0 0 318.63 659.75
  L 318.63 659.07
  Z
  M 423.54 659.30
  A 7.57 7.57 0.0 0 0 415.97 651.73
  L 346.13 651.73
  A 7.57 7.57 0.0 0 0 338.56 659.30
  L 338.56 659.62
  A 7.57 7.57 0.0 0 0 346.13 667.19
  L 415.97 667.19
  A 7.57 7.57 0.0 0 0 423.54 659.62
  L 423.54 659.30
  Z"
/>
<path fill="#ffffff" d="
  M 256.75 423.44
  Q 256.26 423.37 255.91 423.60
  Q 255.66 423.76 255.50 424.21
  C 246.47 449.55 240.04 474.20 238.91 500.56
  C 238.63 507.00 236.07 510.47 229.45 510.80
  Q 222.18 511.15 214.92 510.79
  C 207.82 510.44 204.71 504.80 205.19 497.99
  Q 206.91 473.87 211.24 454.24
  C 219.47 416.90 234.26 380.65 255.33 348.77
  Q 278.30 314.01 305.54 288.54
  Q 318.50 276.43 342.25 259.28
  Q 361.89 245.10 387.34 232.96
  Q 441.47 207.14 499.99 204.28
  C 510.16 203.78 515.92 210.70 515.60 220.65
  C 515.35 228.55 511.24 234.59 502.99 235.77
  Q 477.96 239.36 465.05 242.25
  C 410.65 254.47 360.44 280.44 321.56 321.46
  Q 302.89 341.16 287.18 363.35
  Q 285.76 365.36 284.95 366.66
  Q 282.86 370.04 286.20 367.90
  Q 297.52 360.66 311.98 356.52
  Q 314.75 355.72 325.38 354.63
  Q 325.83 354.58 325.83 355.03
  L 326.02 424.24
  A 1.15 1.14 -13.6 0 1 325.38 425.28
  C 320.53 427.72 315.15 431.54 311.57 433.69
  Q 288.47 447.62 266.14 462.05
  Q 265.23 462.63 264.85 461.63
  C 260.13 449.44 256.48 437.53 257.24 424.06
  Q 257.27 423.52 256.75 423.44
  Z"
/>
<path fill="#ffffff" d="
  M 697.42 256.84
  C 759.82 298.91 806.16 359.77 826.76 432.50
  C 828.27 437.84 830.04 443.51 831.26 448.53
  Q 837.55 474.58 838.27 499.75
  C 838.38 503.58 835.95 508.38 832.27 510.11
  Q 830.50 510.94 826.55 511.04
  C 819.26 511.22 808.90 512.64 805.57 506.83
  Q 804.35 504.70 804.15 499.42
  C 803.05 470.39 795.87 442.19 785.23 414.79
  C 777.62 395.23 767.87 376.76 755.54 359.79
  C 723.68 315.91 681.19 280.40 632.00 259.49
  Q 595.61 244.03 556.48 238.20
  Q 551.16 237.41 545.85 236.53
  C 536.63 235.01 530.34 232.68 528.73 223.02
  C 527.28 214.30 532.06 206.19 541.26 204.74
  Q 545.64 204.05 549.09 204.34
  C 602.22 208.80 653.63 227.31 697.42 256.84
  Z"
/>
<path fill="#ffffff" d="
  M 489.69 432.59
  C 470.37 424.84 453.66 406.23 446.18 387.05
  C 436.86 363.18 438.77 334.16 452.82 312.31
  C 487.66 258.12 565.63 262.51 595.10 319.62
  C 613.50 355.26 601.59 398.44 571.27 422.53
  C 548.81 440.38 515.73 443.03 489.69 432.59
  Z"
/>
<ellipse fill="#ffffff" cx="0.00" cy="0.00" transform="translate(653.22,319.08) rotate(13.8)" rx="22.67" ry="22.38"/>
<path fill="#ffffff" d="
  M 402.60 312.96
  A 0.94 0.94 0.0 0 0 403.55 313.88
  C 406.93 313.87 414.99 313.19 417.75 314.89
  C 420.70 316.71 420.55 321.49 417.59 323.17
  C 414.65 324.83 407.35 324.12 403.85 324.07
  Q 402.46 324.05 402.45 325.44
  L 402.37 336.51
  A 3.77 3.75 -0.9 0 1 398.74 340.24
  L 397.47 340.28
  A 4.82 4.82 0.0 0 1 392.49 335.47
  L 392.49 324.76
  Q 392.49 324.24 391.97 324.24
  Q 385.77 324.21 379.50 324.11
  C 372.37 324.01 372.09 314.15 380.14 314.01
  Q 386.05 313.91 391.83 314.07
  A 0.63 0.63 0.0 0 0 392.48 313.43
  C 392.44 310.47 391.52 301.79 393.66 299.67
  Q 397.39 295.96 401.18 299.56
  C 403.30 301.59 402.52 310.09 402.60 312.96
  Z"
/>
<path fill="#61c3d5" d="
  M 339.78 355.00
  C 357.67 355.98 372.24 364.04 386.21 374.54
  A 1.19 1.19 0.0 0 1 386.30 376.37
  C 371.37 390.10 355.13 401.98 339.47 414.66
  A 0.32 0.32 0.0 0 1 338.94 414.41
  L 339.03 355.70
  A 0.71 0.71 0.0 0 1 339.78 355.00
  Z"
/>
<path fill="#ffffff" d="
  M 699.02 426.74
  Q 697.02 426.96 694.34 426.79
  C 685.12 426.21 675.66 426.66 666.40 426.45
  Q 665.65 426.43 664.12 426.61
  Q 662.37 426.82 661.82 426.22
  Q 662.57 416.14 667.70 407.19
  C 671.30 400.90 661.54 392.53 655.96 399.47
  C 649.78 407.16 647.35 420.34 647.52 429.82
  C 647.94 453.14 663.48 476.10 685.71 483.90
  C 702.96 489.95 717.15 488.89 734.20 482.60
  Q 734.64 482.43 736.12 482.60
  Q 748.76 484.07 761.24 486.53
  Q 762.07 486.70 762.48 486.55
  A 0.57 0.56 59.4 0 0 762.71 485.64
  Q 752.97 474.63 744.10 463.39
  Q 742.91 461.88 741.69 459.45
  A 0.59 0.58 -33.6 0 1 741.84 458.74
  L 750.44 451.61
  Q 750.79 451.33 751.11 451.65
  Q 765.36 466.00 778.05 481.70
  Q 778.51 482.27 778.52 483.37
  Q 778.64 491.94 778.68 500.51
  Q 778.70 503.61 775.23 503.26
  Q 757.39 501.48 739.75 498.30
  C 738.90 498.14 737.71 498.15 736.76 498.43
  Q 726.60 501.45 722.00 502.25
  Q 702.59 505.65 684.47 499.83
  C 647.40 487.93 625.56 449.62 634.77 411.75
  C 642.53 379.83 672.28 357.24 704.49 358.28
  A 0.47 0.47 0.0 0 1 704.95 358.75
  L 705.01 425.99
  Q 705.01 426.52 704.48 426.54
  L 699.02 426.74
  Z"
/>
<path fill="#ffffff" d="
  M 403.57 457.05
  Q 396.38 473.36 383.87 484.79
  Q 382.75 485.81 381.86 484.59
  L 341.88 430.14
  Q 341.59 429.74 341.99 429.45
  Q 345.36 427.00 348.64 424.37
  Q 371.27 406.26 393.89 388.12
  C 394.56 387.58 395.13 386.61 395.81 385.92
  Q 396.23 385.50 396.60 385.98
  C 411.48 405.33 413.22 435.16 403.57 457.05
  Z"
/>
<path fill="#61c3d5" d="
  M 661.82 426.22
  Q 662.37 426.82 664.12 426.61
  Q 665.65 426.43 666.40 426.45
  C 675.66 426.66 685.12 426.21 694.34 426.79
  Q 697.02 426.96 699.02 426.74
  L 732.44 466.95
  A 0.57 0.57 0.0 0 1 732.21 467.84
  C 727.44 469.75 722.22 471.97 717.49 472.99
  C 688.61 479.25 659.84 456.58 661.82 426.22
  Z"
/>
<path fill="#ffffff" d="
  M 361.12 498.46
  C 335.51 508.48 305.29 505.78 284.38 487.37
  Q 278.00 481.75 272.55 475.26
  A 0.53 0.53 0.0 0 1 272.65 474.49
  C 289.53 462.70 307.07 451.78 324.40 440.68
  Q 327.11 438.94 329.38 436.80
  A 0.36 0.36 0.0 0 1 329.93 436.85
  Q 343.29 456.00 357.07 474.65
  Q 363.65 483.57 369.37 492.74
  A 1.26 1.26 0.0 0 1 368.97 494.47
  Q 365.08 496.91 361.12 498.46
  Z"
/>
<path fill="#ffffff" d="
  M 542.18 461.10
  C 561.12 468.88 579.90 477.09 598.62 485.39
  Q 606.88 489.05 614.72 493.53
  C 632.66 503.79 645.05 520.88 648.31 541.41
  A 0.35 0.35 0.0 0 1 647.96 541.81
  L 394.79 541.87
  A 0.33 0.33 0.0 0 1 394.47 541.48
  C 399.21 514.88 415.03 498.16 439.20 487.69
  Q 469.31 474.65 499.49 461.79
  C 513.44 455.85 528.19 455.35 542.18 461.10
  Z"
/>
<rect fill="#ffffff" x="200.83" y="525.88" width="172.38" height="16.40" rx="8.10"/>
<path fill="#ffffff" d="
  M 831.25 525.77
  C 844.45 525.78 845.53 542.19 832.25 542.21
  Q 754.38 542.30 676.50 542.23
  Q 673.32 542.23 670.92 539.34
  C 665.85 533.22 670.66 525.96 678.00 525.93
  Q 754.63 525.70 831.25 525.77
  Z"
/>
<ellipse fill="#ffffff" cx="0.00" cy="0.00" transform="translate(225.83,580.31) rotate(2.3)" rx="16.18" ry="15.98"/>
<path fill="#ffffff" d="
  M 660.75 764.73
  Q 660.93 765.64 661.76 765.21
  Q 674.48 758.63 686.38 750.65
  Q 686.87 750.33 686.87 749.75
  Q 687.03 686.14 687.00 622.50
  C 686.99 614.24 688.72 607.30 695.58 602.09
  C 706.50 593.78 722.55 599.83 727.11 612.17
  Q 728.48 615.86 728.48 623.00
  Q 728.52 667.98 728.61 713.79
  Q 728.62 715.48 729.88 714.35
  Q 746.86 699.11 760.76 679.99
  C 764.09 675.41 767.41 671.21 773.16 671.18
  Q 784.15 671.13 789.51 680.93
  C 793.21 687.71 791.37 693.68 787.12 699.63
  C 744.88 758.89 680.35 802.05 611.50 824.03
  C 590.23 830.83 567.61 834.69 546.01 836.76
  C 524.46 838.82 522.62 807.64 541.07 804.77
  Q 546.18 803.98 551.14 803.37
  A 0.45 0.44 -3.7 0 0 551.53 802.93
  Q 551.34 740.57 551.48 678.13
  Q 551.49 672.78 552.75 669.54
  C 559.82 651.36 585.47 651.96 591.59 670.81
  Q 592.50 673.63 592.54 678.79
  Q 592.92 735.97 592.66 793.42
  A 0.66 0.65 -9.1 0 0 593.52 794.04
  L 617.93 786.18
  A 1.54 1.54 0.0 0 0 619.01 784.71
  Q 619.03 690.82 619.02 596.50
  C 619.02 584.55 618.14 571.51 631.03 565.77
  C 641.45 561.13 654.53 565.80 658.77 576.55
  Q 660.21 580.19 660.26 587.67
  C 660.64 646.02 660.51 704.38 660.59 762.74
  Q 660.59 763.96 660.75 764.73
  Z"
/>
<ellipse fill="#ffffff" cx="0.00" cy="0.00" transform="translate(817.45,580.26) rotate(-1.9)" rx="16.30" ry="15.87"/>
<path fill="#ffffff" d="
  M 290.38 631.43
  C 285.65 629.25 285.11 626.12 285.13 620.89
  Q 285.21 599.22 285.22 577.52
  C 285.22 569.80 287.85 565.74 295.67 565.40
  C 305.66 564.96 317.91 563.36 317.98 576.50
  Q 318.10 598.05 317.97 619.59
  C 317.93 626.55 316.04 631.70 308.39 631.75
  Q 299.91 631.80 292.03 631.79
  A 4.02 3.93 56.7 0 1 290.38 631.43
  Z"
/>
<rect fill="#61c3d5" x="-16.74" y="-15.80" transform="translate(354.51,581.27) rotate(0.1)" width="33.48" height="31.60" rx="9.76"/>
<rect fill="#61c3d5" x="-16.72" y="-15.79" transform="translate(407.18,581.31) rotate(0.5)" width="33.44" height="31.58" rx="8.98"/>
<path fill="#61c3d5" d="
  M 451.21 596.72
  A 7.70 7.70 0.0 0 1 443.53 589.01
  L 443.55 576.16
  A 10.73 10.51 -89.9 0 1 454.08 565.45
  L 467.66 565.47
  A 10.73 10.51 -89.9 0 1 478.15 576.22
  L 478.13 589.07
  A 7.70 7.70 0.0 0 1 470.41 596.76
  L 451.21 596.72
  Z"
/>
<path fill="#ffffff" d="
  M 286.75 686.45
  Q 290.79 688.80 293.60 692.15
  Q 305.68 706.55 317.62 717.48
  L 336.87 734.41
  Q 350.14 745.02 365.66 756.10
  Q 368.44 758.09 371.50 759.50
  L 389.75 770.03
  Q 406.24 778.82 424.08 786.07
  L 443.33 792.55
  Q 459.57 797.39 476.25 800.98
  Q 476.87 801.11 478.18 800.96
  Q 478.16 801.30 478.63 801.39
  Q 489.24 803.54 499.77 804.71
  A 0.76 0.76 0.0 0 0 500.61 803.96
  C 500.86 727.54 500.24 651.16 500.79 574.75
  C 500.82 570.60 501.78 567.60 505.77 565.88
  Q 509.13 564.43 512.44 566.09
  C 515.69 567.71 516.47 571.61 516.47 575.35
  C 516.38 656.35 517.30 737.37 516.20 818.36
  Q 516.09 826.03 514.75 828.96
  C 511.95 835.11 505.75 837.38 499.01 836.81
  Q 457.08 833.27 415.51 818.79
  Q 402.14 814.13 393.58 810.19
  Q 351.66 790.88 319.90 764.84
  C 299.58 748.19 283.57 731.20 269.56 713.44
  C 265.81 708.67 262.61 701.78 266.04 695.05
  C 270.18 686.89 278.08 684.75 286.75 686.45
  Z"
/>
<rect fill="#ffffff" x="219.72" y="614.53" width="43.54" height="15.66" rx="7.53"/>
<rect fill="#ffffff" x="-33.34" y="-7.84" transform="translate(789.35,622.39) rotate(0.1)" width="66.68" height="15.68" rx="7.63"/>
<rect fill="#61c3d5" x="-16.85" y="-8.59" transform="translate(354.67,623.35) rotate(-0.2)" width="33.70" height="17.18" rx="7.42"/>
<rect fill="#61c3d5" x="390.01" y="614.74" width="34.06" height="17.04" rx="7.49"/>
<rect fill="#61c3d5" x="-17.57" y="-8.47" transform="translate(460.66,623.28) rotate(-0.1)" width="35.14" height="16.94" rx="7.75"/>
<rect fill="#ffffff" x="283.99" y="651.71" width="34.64" height="15.40" rx="7.36"/>
<rect fill="#ffffff" x="338.56" y="651.73" width="84.98" height="15.46" rx="7.57"/>
<path fill="#61c3d5" d="
  M 478.18 800.96
  Q 476.87 801.11 476.25 800.98
  Q 459.57 797.39 443.33 792.55
  Q 443.29 788.80 443.30 785.25
  C 443.44 744.23 443.76 703.18 443.72 662.16
  C 443.72 657.31 445.99 651.64 451.75 651.66
  Q 459.40 651.68 467.05 651.75
  C 475.00 651.82 478.22 654.90 478.25 662.64
  Q 478.51 724.57 478.33 786.50
  Q 478.31 793.73 478.18 800.96
  Z"
/>
<path fill="#61c3d5" d="
  M 317.62 717.48
  Q 305.68 706.55 293.60 692.15
  Q 290.79 688.80 286.75 686.45
  Q 295.45 685.64 304.49 685.71
  Q 309.83 685.76 312.49 687.35
  Q 317.15 690.13 317.54 696.25
  Q 317.90 701.85 317.62 717.48
  Z"
/>
<path fill="#61c3d5" d="
  M 371.50 759.50
  Q 368.44 758.09 365.66 756.10
  Q 350.14 745.02 336.87 734.41
  Q 337.55 717.02 337.35 700.75
  C 337.28 695.21 337.98 689.95 343.18 687.11
  Q 345.71 685.73 351.53 685.74
  C 358.66 685.77 366.36 684.43 370.16 691.87
  Q 371.49 694.46 371.49 699.89
  Q 371.49 726.19 371.27 752.51
  C 371.26 754.63 371.52 757.15 371.50 759.50
  Z"
/>
<path fill="#61c3d5" d="
  M 424.08 786.07
  Q 406.24 778.82 389.75 770.03
  Q 389.69 733.68 389.71 697.25
  C 389.72 692.05 393.35 685.74 399.25 685.76
  C 404.61 685.78 414.02 684.67 418.33 687.06
  C 425.81 691.20 423.81 701.66 423.82 709.06
  Q 423.85 747.37 424.08 786.07
  Z"
/>
</svg>
