<?xml version="1.0" encoding="UTF-8" standalone="no"?>
<!DOCTYPE svg PUBLIC "-//W3C//DTD SVG 1.1//EN" "http://www.w3.org/Graphics/SVG/1.1/DTD/svg11.dtd">
<svg xmlns="http://www.w3.org/2000/svg" version="1.1" viewBox="0.00 0.00 1024.00 1024.00">
<g stroke-width="2.00" fill="none" stroke-linecap="butt">
<path stroke="#80838a" vector-effect="non-scaling-stroke" d="
  M 280.34 373.09
  C 261.72 399.79 248.89 431.58 241.87 463.72
  C 239.16 476.15 238.11 488.82 237.18 501.49
  Q 236.88 505.44 237.71 507.76
  C 239.33 512.34 243.06 512.12 247.84 512.12
  Q 264.71 512.12 281.59 512.02
  C 291.93 511.96 289.50 502.72 290.20 496.03
  Q 293.13 468.21 303.04 443.75
  C 333.71 368.05 402.72 315.45 484.74 307.91
  C 493.91 307.06 493.70 302.90 493.73 294.50
  Q 493.78 279.47 493.74 264.44
  C 493.72 258.28 491.78 253.55 484.89 254.13
  C 426.39 259.07 370.01 282.03 326.03 321.12
  C 308.05 337.10 293.03 354.89 280.34 373.09"
/>
<path stroke="#80838a" vector-effect="non-scaling-stroke" d="
  M 537.97 309.91
  C 590.17 319.91 636.55 345.61 670.99 387.24
  C 698.23 420.15 714.73 459.29 717.45 501.50
  C 717.82 507.26 718.64 512.25 725.24 512.25
  Q 743.48 512.24 761.72 512.08
  C 765.93 512.04 770.06 510.57 770.23 506.01
  Q 770.62 495.10 767.95 477.76
  Q 759.55 423.18 729.96 377.11
  C 724.48 368.58 716.27 357.91 710.62 350.87
  Q 696.12 332.79 674.96 315.52
  Q 635.16 283.02 586.23 267.13
  Q 566.93 260.86 561.01 259.72
  Q 539.47 255.57 522.50 254.23
  Q 517.23 253.81 515.03 257.55
  Q 513.80 259.64 513.80 264.67
  Q 513.79 282.96 513.83 301.25
  C 513.84 305.39 519.07 307.80 522.50 307.99
  Q 530.30 308.44 537.97 309.91"
/>
<path stroke="#80838a" vector-effect="non-scaling-stroke" d="
  M 395.28 403.89
  C 423.83 377.18 466.42 361.93 505.25 362.48
  Q 564.52 363.33 609.97 402.02
  C 639.96 427.55 659.62 462.79 663.21 502.18
  C 663.70 507.51 664.24 510.85 669.76 511.99
  C 674.41 512.95 680.75 512.71 682.94 507.95
  Q 683.82 506.03 683.62 501.92
  Q 682.83 485.68 678.41 470.00
  C 652.54 378.23 551.01 322.49 460.05 346.12
  C 423.21 355.69 392.02 373.92 367.22 402.21
  C 345.59 426.90 330.36 456.21 325.48 488.74
  Q 323.96 498.87 324.24 504.99
  C 324.56 512.13 331.14 512.33 336.48 512.16
  C 343.73 511.93 344.41 508.22 344.89 501.68
  C 347.67 464.31 368.53 428.91 395.28 403.89"
/>
<path stroke="#80838a" vector-effect="non-scaling-stroke" d="
  M 480.13 504.44
  L 397.25 587.87
  A 2.44 2.43 61.6 0 0 396.59 590.09
  L 404.72 629.94
  A 0.16 0.15 -4.1 0 0 404.88 630.07
  L 459.99 630.02
  A 1.42 1.40 -66.5 0 0 460.96 629.63
  L 465.68 625.10
  Q 466.10 624.69 466.05 624.10
  L 463.55 597.38
  A 1.78 1.76 65.4 0 1 464.08 595.94
  L 482.42 578.27
  A 1.28 1.27 22.7 0 1 483.31 577.91
  Q 495.82 577.91 508.25 577.75
  Q 509.20 577.74 510.39 576.39
  Q 512.40 574.14 514.07 571.89
  Q 514.55 571.24 514.56 570.44
  L 514.80 534.76
  A 0.46 0.46 0.0 0 1 515.43 534.33
  C 552.31 548.59 595.65 536.20 613.34 499.48
  Q 621.74 482.05 621.15 461.01
  C 620.02 420.98 584.56 388.01 545.02 388.28
  C 520.47 388.45 495.85 399.57 482.05 420.26
  C 465.11 445.66 464.58 477.28 480.25 503.48
  Q 480.56 504.01 480.13 504.44"
/>
<path stroke="#80838a" vector-effect="non-scaling-stroke" d="
  M 435.89 424.20
  A 10.00 10.00 0.0 0 0 425.89 414.20
  A 10.00 10.00 0.0 0 0 415.89 424.20
  A 10.00 10.00 0.0 0 0 425.89 434.20
  A 10.00 10.00 0.0 0 0 435.89 424.20"
/>
<path stroke="#80838a" vector-effect="non-scaling-stroke" d="
  M 391.5693 482.8771
  A 10.00 9.74 104.6 0 0 403.5155 475.6552
  A 10.00 9.74 104.6 0 0 396.6107 463.5229
  A 10.00 9.74 104.6 0 0 384.6645 470.7448
  A 10.00 9.74 104.6 0 0 391.5693 482.8771"
/>
<path stroke="#80838a" vector-effect="non-scaling-stroke" d="
  M 493.00 679.71
  C 454.28 677.63 414.16 658.07 387.76 629.99
  C 365.42 606.22 348.51 575.69 345.57 542.93
  Q 345.09 537.53 343.80 535.35
  Q 341.22 531.00 335.84 530.73
  C 327.86 530.34 324.05 533.40 324.55 541.75
  C 325.40 556.00 328.99 568.96 333.63 582.18
  C 344.06 611.86 364.24 639.76 387.93 659.57
  C 408.61 676.85 434.75 690.42 461.45 696.42
  C 522.96 710.26 586.47 693.78 631.36 648.84
  Q 638.53 641.66 646.00 632.49
  C 664.83 609.34 676.34 581.90 681.90 552.85
  Q 683.21 545.99 683.29 539.00
  C 683.42 527.93 663.97 527.00 662.63 538.28
  Q 660.61 555.23 655.42 571.39
  C 641.41 615.05 606.52 650.68 564.29 667.92
  C 541.13 677.37 518.58 681.08 493.00 679.71"
/>
<path stroke="#80838a" vector-effect="non-scaling-stroke" d="
  M 278.43 664.66
  C 319.71 727.80 384.51 771.50 459.28 784.06
  Q 471.60 786.14 484.00 787.75
  C 489.44 788.45 493.66 785.45 493.68 779.75
  Q 493.77 761.26 493.72 742.78
  C 493.71 738.60 492.50 734.42 488.00 733.99
  Q 446.29 730.03 411.56 713.35
  Q 396.36 706.05 388.12 700.62
  C 337.89 667.52 302.22 616.62 291.78 557.01
  Q 291.11 553.15 290.00 538.75
  C 289.60 533.54 285.57 531.79 280.62 531.80
  Q 263.18 531.84 245.75 531.79
  C 237.90 531.76 236.69 536.88 237.17 543.72
  C 239.70 580.13 250.95 615.36 268.22 647.48
  Q 272.97 656.32 278.43 664.66"
/>
<path stroke="#80838a" vector-effect="non-scaling-stroke" d="
  M 747.42 631.10
  Q 767.06 588.33 770.21 541.40
  C 770.45 537.81 769.86 534.66 766.83 532.83
  Q 764.96 531.71 760.48 531.72
  Q 743.47 531.79 726.44 531.75
  C 721.82 531.74 717.88 533.38 717.48 538.25
  Q 715.12 567.14 706.53 590.94
  Q 699.68 609.95 694.95 618.70
  C 665.97 672.31 615.96 712.63 556.68 727.55
  C 544.60 730.59 534.84 732.84 523.54 733.38
  C 516.79 733.71 513.88 735.68 513.82 742.76
  Q 513.65 760.98 513.55 779.21
  Q 513.54 782.61 514.78 784.49
  Q 517.51 788.62 523.00 788.03
  C 574.37 782.48 626.87 764.48 668.35 731.31
  C 702.44 704.05 729.06 671.06 747.42 631.10"
/>
<path stroke="#80838a" vector-effect="non-scaling-stroke" d="
  M 395.44 542.06
  A 9.60 9.60 0.0 0 0 385.84 532.46
  A 9.60 9.60 0.0 0 0 376.24 542.06
  A 9.60 9.60 0.0 0 0 385.84 551.66
  A 9.60 9.60 0.0 0 0 395.44 542.06"
/>
<path stroke="#80838a" vector-effect="non-scaling-stroke" d="
  M 631.09 545.08
  A 9.77 9.77 0.0 0 0 621.32 535.31
  A 9.77 9.77 0.0 0 0 611.55 545.08
  A 9.77 9.77 0.0 0 0 621.32 554.85
  A 9.77 9.77 0.0 0 0 631.09 545.08"
/>
<path stroke="#80838a" vector-effect="non-scaling-stroke" d="
  M 609.3179 582.9333
  A 9.92 9.62 -24.9 0 0 596.2696 578.3842
  A 9.92 9.62 -24.9 0 0 591.3221 591.2867
  A 9.92 9.62 -24.9 0 0 604.3704 595.8358
  A 9.92 9.62 -24.9 0 0 609.3179 582.9333"
/>
<path stroke="#80838a" vector-effect="non-scaling-stroke" d="
  M 522.4847 636.2188
  A 9.88 9.73 80.3 0 0 530.4109 624.8406
  A 9.88 9.73 80.3 0 0 519.1553 616.7412
  A 9.88 9.73 80.3 0 0 511.2291 628.1194
  A 9.88 9.73 80.3 0 0 522.4847 636.2188"
/>
<path stroke="#80838a" vector-effect="non-scaling-stroke" d="
  M 577.57 626.32
  A 9.93 9.93 0.0 0 0 567.64 616.39
  A 9.93 9.93 0.0 0 0 557.71 626.32
  A 9.93 9.93 0.0 0 0 567.64 636.25
  A 9.93 9.93 0.0 0 0 577.57 626.32"
/>
<path stroke="#80838a" vector-effect="non-scaling-stroke" d="
  M 458.75 279.30
  C 414.92 287.77 376.29 306.54 341.96 335.21
  C 323.99 350.22 308.43 369.44 295.32 388.75
  Q 289.53 397.27 285.02 405.86
  C 272.16 430.34 261.46 459.09 259.76 486.56
  C 259.30 493.90 269.59 492.05 269.97 488.00
  C 271.95 466.87 278.76 446.26 287.08 426.87
  Q 291.01 417.71 296.00 408.99
  C 330.76 348.23 386.86 306.08 455.25 290.78
  Q 459.72 289.78 465.71 289.08
  C 470.01 288.59 472.20 287.73 471.91 282.99
  C 471.47 275.77 463.11 278.46 458.75 279.30"
/>
<path stroke="#80838a" vector-effect="non-scaling-stroke" d="
  M 561.42 292.99
  C 619.54 309.19 668.18 342.90 702.07 393.15
  A 1.56 1.55 -29.4 0 0 704.02 393.69
  L 709.50 391.15
  A 2.93 2.92 -28.3 0 0 710.76 386.96
  Q 706.78 380.48 701.77 373.98
  C 689.80 358.47 676.22 343.76 660.96 331.45
  Q 614.00 293.57 554.63 279.82
  Q 547.65 278.20 540.50 277.75
  Q 536.93 277.53 536.25 281.01
  C 534.96 287.67 537.71 289.27 543.75 289.30
  Q 548.26 289.32 561.42 292.99"
/>
<path stroke="#80838a" vector-effect="non-scaling-stroke" d="
  M 713.42 412.77
  L 724.72 436.52
  A 1.40 1.39 71.0 0 0 726.28 437.29
  C 729.91 436.48 735.77 436.07 733.71 430.65
  C 730.92 423.27 727.19 416.27 724.05 408.96
  Q 722.91 406.32 720.38 407.68
  L 713.95 411.16
  A 1.23 1.23 0.0 0 0 713.42 412.77"
/>
<path stroke="#80838a" vector-effect="non-scaling-stroke" d="
  M 739.32 454.54
  C 737.77 454.82 733.49 456.25 731.69 457.61
  A 0.97 0.97 0.0 0 0 731.35 458.67
  Q 735.67 472.95 737.74 487.73
  C 738.38 492.33 744.70 491.60 747.34 489.72
  A 1.61 1.60 71.5 0 0 748.02 488.35
  C 747.67 477.83 745.11 466.89 742.24 456.76
  Q 741.50 454.15 739.32 454.54"
/>
<path stroke="#80838a" vector-effect="non-scaling-stroke" d="
  M 591.85 435.09
  C 580.36 417.93 559.91 408.00 539.24 409.85
  C 507.85 412.65 486.72 439.68 489.84 471.01
  C 491.25 485.13 499.19 497.97 510.19 506.96
  C 522.89 517.34 541.29 521.01 557.20 518.16
  C 595.30 511.35 613.23 467.00 591.85 435.09"
/>
<path stroke="#80838a" vector-effect="non-scaling-stroke" d="
  M 446.44 610.29
  L 443.81 588.88
  A 1.52 1.50 64.0 0 1 444.22 587.66
  L 471.57 559.90
  A 3.34 3.33 21.9 0 1 473.93 558.90
  L 494.94 558.80
  A 0.50 0.49 -0.0 0 0 495.44 558.31
  L 495.52 521.00
  Q 495.52 520.65 495.19 520.54
  Q 495.00 520.48 494.77 520.53
  Q 494.61 520.57 494.44 520.72
  Q 480.77 533.03 469.73 544.48
  C 459.31 555.29 447.73 566.36 438.79 575.43
  Q 428.65 585.70 418.51 596.01
  Q 418.13 596.40 418.21 596.94
  L 420.41 610.51
  Q 420.47 610.86 420.82 610.86
  L 445.97 610.83
  Q 446.51 610.83 446.44 610.29"
/>
<path stroke="#80838a" vector-effect="non-scaling-stroke" d="
  M 574.43 459.22
  A 27.69 27.69 0.0 0 0 546.74 431.53
  A 27.69 27.69 0.0 0 0 519.05 459.22
  A 27.69 27.69 0.0 0 0 546.74 486.91
  A 27.69 27.69 0.0 0 0 574.43 459.22"
/>
<path stroke="#80838a" vector-effect="non-scaling-stroke" d="
  M 555.53 459.89
  A 8.60 8.60 0.0 0 0 546.93 451.29
  A 8.60 8.60 0.0 0 0 538.33 459.89
  A 8.60 8.60 0.0 0 0 546.93 468.49
  A 8.60 8.60 0.0 0 0 555.53 459.89"
/>
<path stroke="#80838a" vector-effect="non-scaling-stroke" d="
  M 273.31 578.59
  Q 274.40 578.03 274.18 576.82
  L 270.42 556.21
  A 1.08 1.08 0.0 0 0 269.38 555.33
  C 267.25 555.27 259.46 554.20 259.81 557.75
  Q 260.62 566.08 263.79 578.49
  C 265.02 583.31 270.64 579.97 273.31 578.59"
/>
<path stroke="#80838a" vector-effect="non-scaling-stroke" d="
  M 287.63 639.20
  Q 296.08 654.61 300.78 660.97
  Q 307.73 670.36 316.44 681.89
  Q 317.10 682.77 317.98 682.11
  L 324.95 676.90
  A 1.01 1.01 0.0 0 0 325.16 675.50
  Q 318.75 666.58 312.21 657.59
  Q 293.17 631.43 281.86 601.10
  C 280.48 597.40 275.24 600.36 272.74 601.38
  A 2.14 2.13 68.7 0 0 271.55 604.10
  Q 278.24 622.09 287.63 639.20"
/>
<path stroke="#80838a" vector-effect="non-scaling-stroke" d="
  M 335.39 699.77
  C 371.79 734.10 415.20 754.47 463.73 764.44
  Q 466.60 765.03 468.26 764.99
  C 473.92 764.85 472.25 753.79 468.51 753.28
  C 463.71 752.63 458.87 752.06 454.21 750.91
  C 412.89 740.70 376.15 722.16 344.49 693.28
  Q 343.63 692.50 342.49 691.95
  Q 342.10 691.76 341.71 691.98
  Q 338.06 694.02 335.26 697.22
  A 1.84 1.84 0.0 0 0 335.39 699.77"
/>
<path stroke="#80838a" vector-effect="non-scaling-stroke" d="
  M 722.08 629.50
  A 2.30 2.30 0.0 0 0 725.40 628.56
  Q 741.33 595.52 747.14 558.73
  Q 747.40 557.10 747.25 556.17
  A 1.38 1.38 0.0 0 0 745.91 555.00
  L 738.81 554.91
  Q 738.23 554.91 737.79 555.29
  C 736.17 556.69 736.60 558.23 736.32 559.94
  C 732.64 582.10 724.93 604.27 715.40 624.62
  A 0.57 0.57 0.0 0 0 715.61 625.34
  L 722.08 629.50"
/>
<path stroke="#80838a" vector-effect="non-scaling-stroke" d="
  M 614.69 727.96
  C 591.47 740.11 566.68 748.42 540.42 752.80
  C 535.16 753.68 536.12 757.22 536.61 761.23
  C 537.14 765.60 540.87 764.40 543.74 763.86
  C 573.29 758.31 603.84 748.13 629.55 732.29
  C 649.36 720.08 663.85 708.59 680.66 692.15
  Q 693.78 679.31 706.66 660.88
  Q 712.18 652.98 712.93 650.17
  C 713.88 646.59 708.28 643.87 705.72 643.68
  A 1.21 1.20 23.9 0 0 704.80 644.03
  C 702.93 645.93 701.29 648.95 700.26 650.35
  C 695.16 657.33 689.92 664.73 684.62 670.96
  C 665.21 693.77 641.29 714.04 614.69 727.96"
/>
</g>
<path fill="#010614" d="
  M 0.00 0.00
  L 1024.00 0.00
  L 1024.00 1024.00
  L 0.00 1024.00
  L 0.00 0.00
  Z
  M 280.34 373.09
  C 261.72 399.79 248.89 431.58 241.87 463.72
  C 239.16 476.15 238.11 488.82 237.18 501.49
  Q 236.88 505.44 237.71 507.76
  C 239.33 512.34 243.06 512.12 247.84 512.12
  Q 264.71 512.12 281.59 512.02
  C 291.93 511.96 289.50 502.72 290.20 496.03
  Q 293.13 468.21 303.04 443.75
  C 333.71 368.05 402.72 315.45 484.74 307.91
  C 493.91 307.06 493.70 302.90 493.73 294.50
  Q 493.78 279.47 493.74 264.44
  C 493.72 258.28 491.78 253.55 484.89 254.13
  C 426.39 259.07 370.01 282.03 326.03 321.12
  C 308.05 337.10 293.03 354.89 280.34 373.09
  Z
  M 537.97 309.91
  C 590.17 319.91 636.55 345.61 670.99 387.24
  C 698.23 420.15 714.73 459.29 717.45 501.50
  C 717.82 507.26 718.64 512.25 725.24 512.25
  Q 743.48 512.24 761.72 512.08
  C 765.93 512.04 770.06 510.57 770.23 506.01
  Q 770.62 495.10 767.95 477.76
  Q 759.55 423.18 729.96 377.11
  C 724.48 368.58 716.27 357.91 710.62 350.87
  Q 696.12 332.79 674.96 315.52
  Q 635.16 283.02 586.23 267.13
  Q 566.93 260.86 561.01 259.72
  Q 539.47 255.57 522.50 254.23
  Q 517.23 253.81 515.03 257.55
  Q 513.80 259.64 513.80 264.67
  Q 513.79 282.96 513.83 301.25
  C 513.84 305.39 519.07 307.80 522.50 307.99
  Q 530.30 308.44 537.97 309.91
  Z
  M 395.28 403.89
  C 423.83 377.18 466.42 361.93 505.25 362.48
  Q 564.52 363.33 609.97 402.02
  C 639.96 427.55 659.62 462.79 663.21 502.18
  C 663.70 507.51 664.24 510.85 669.76 511.99
  C 674.41 512.95 680.75 512.71 682.94 507.95
  Q 683.82 506.03 683.62 501.92
  Q 682.83 485.68 678.41 470.00
  C 652.54 378.23 551.01 322.49 460.05 346.12
  C 423.21 355.69 392.02 373.92 367.22 402.21
  C 345.59 426.90 330.36 456.21 325.48 488.74
  Q 323.96 498.87 324.24 504.99
  C 324.56 512.13 331.14 512.33 336.48 512.16
  C 343.73 511.93 344.41 508.22 344.89 501.68
  C 347.67 464.31 368.53 428.91 395.28 403.89
  Z
  M 480.13 504.44
  L 397.25 587.87
  A 2.44 2.43 61.6 0 0 396.59 590.09
  L 404.72 629.94
  A 0.16 0.15 -4.1 0 0 404.88 630.07
  L 459.99 630.02
  A 1.42 1.40 -66.5 0 0 460.96 629.63
  L 465.68 625.10
  Q 466.10 624.69 466.05 624.10
  L 463.55 597.38
  A 1.78 1.76 65.4 0 1 464.08 595.94
  L 482.42 578.27
  A 1.28 1.27 22.7 0 1 483.31 577.91
  Q 495.82 577.91 508.25 577.75
  Q 509.20 577.74 510.39 576.39
  Q 512.40 574.14 514.07 571.89
  Q 514.55 571.24 514.56 570.44
  L 514.80 534.76
  A 0.46 0.46 0.0 0 1 515.43 534.33
  C 552.31 548.59 595.65 536.20 613.34 499.48
  Q 621.74 482.05 621.15 461.01
  C 620.02 420.98 584.56 388.01 545.02 388.28
  C 520.47 388.45 495.85 399.57 482.05 420.26
  C 465.11 445.66 464.58 477.28 480.25 503.48
  Q 480.56 504.01 480.13 504.44
  Z
  M 435.89 424.20
  A 10.00 10.00 0.0 0 0 425.89 414.20
  A 10.00 10.00 0.0 0 0 415.89 424.20
  A 10.00 10.00 0.0 0 0 425.89 434.20
  A 10.00 10.00 0.0 0 0 435.89 424.20
  Z
  M 391.5693 482.8771
  A 10.00 9.74 104.6 0 0 403.5155 475.6552
  A 10.00 9.74 104.6 0 0 396.6107 463.5229
  A 10.00 9.74 104.6 0 0 384.6645 470.7448
  A 10.00 9.74 104.6 0 0 391.5693 482.8771
  Z
  M 493.00 679.71
  C 454.28 677.63 414.16 658.07 387.76 629.99
  C 365.42 606.22 348.51 575.69 345.57 542.93
  Q 345.09 537.53 343.80 535.35
  Q 341.22 531.00 335.84 530.73
  C 327.86 530.34 324.05 533.40 324.55 541.75
  C 325.40 556.00 328.99 568.96 333.63 582.18
  C 344.06 611.86 364.24 639.76 387.93 659.57
  C 408.61 676.85 434.75 690.42 461.45 696.42
  C 522.96 710.26 586.47 693.78 631.36 648.84
  Q 638.53 641.66 646.00 632.49
  C 664.83 609.34 676.34 581.90 681.90 552.85
  Q 683.21 545.99 683.29 539.00
  C 683.42 527.93 663.97 527.00 662.63 538.28
  Q 660.61 555.23 655.42 571.39
  C 641.41 615.05 606.52 650.68 564.29 667.92
  C 541.13 677.37 518.58 681.08 493.00 679.71
  Z
  M 278.43 664.66
  C 319.71 727.80 384.51 771.50 459.28 784.06
  Q 471.60 786.14 484.00 787.75
  C 489.44 788.45 493.66 785.45 493.68 779.75
  Q 493.77 761.26 493.72 742.78
  C 493.71 738.60 492.50 734.42 488.00 733.99
  Q 446.29 730.03 411.56 713.35
  Q 396.36 706.05 388.12 700.62
  C 337.89 667.52 302.22 616.62 291.78 557.01
  Q 291.11 553.15 290.00 538.75
  C 289.60 533.54 285.57 531.79 280.62 531.80
  Q 263.18 531.84 245.75 531.79
  C 237.90 531.76 236.69 536.88 237.17 543.72
  C 239.70 580.13 250.95 615.36 268.22 647.48
  Q 272.97 656.32 278.43 664.66
  Z
  M 747.42 631.10
  Q 767.06 588.33 770.21 541.40
  C 770.45 537.81 769.86 534.66 766.83 532.83
  Q 764.96 531.71 760.48 531.72
  Q 743.47 531.79 726.44 531.75
  C 721.82 531.74 717.88 533.38 717.48 538.25
  Q 715.12 567.14 706.53 590.94
  Q 699.68 609.95 694.95 618.70
  C 665.97 672.31 615.96 712.63 556.68 727.55
  C 544.60 730.59 534.84 732.84 523.54 733.38
  C 516.79 733.71 513.88 735.68 513.82 742.76
  Q 513.65 760.98 513.55 779.21
  Q 513.54 782.61 514.78 784.49
  Q 517.51 788.62 523.00 788.03
  C 574.37 782.48 626.87 764.48 668.35 731.31
  C 702.44 704.05 729.06 671.06 747.42 631.10
  Z
  M 395.44 542.06
  A 9.60 9.60 0.0 0 0 385.84 532.46
  A 9.60 9.60 0.0 0 0 376.24 542.06
  A 9.60 9.60 0.0 0 0 385.84 551.66
  A 9.60 9.60 0.0 0 0 395.44 542.06
  Z
  M 631.09 545.08
  A 9.77 9.77 0.0 0 0 621.32 535.31
  A 9.77 9.77 0.0 0 0 611.55 545.08
  A 9.77 9.77 0.0 0 0 621.32 554.85
  A 9.77 9.77 0.0 0 0 631.09 545.08
  Z
  M 609.3179 582.9333
  A 9.92 9.62 -24.9 0 0 596.2696 578.3842
  A 9.92 9.62 -24.9 0 0 591.3221 591.2867
  A 9.92 9.62 -24.9 0 0 604.3704 595.8358
  A 9.92 9.62 -24.9 0 0 609.3179 582.9333
  Z
  M 522.4847 636.2188
  A 9.88 9.73 80.3 0 0 530.4109 624.8406
  A 9.88 9.73 80.3 0 0 519.1553 616.7412
  A 9.88 9.73 80.3 0 0 511.2291 628.1194
  A 9.88 9.73 80.3 0 0 522.4847 636.2188
  Z
  M 577.57 626.32
  A 9.93 9.93 0.0 0 0 567.64 616.39
  A 9.93 9.93 0.0 0 0 557.71 626.32
  A 9.93 9.93 0.0 0 0 567.64 636.25
  A 9.93 9.93 0.0 0 0 577.57 626.32
  Z"
/>
<path fill="#ffffff" d="
  M 241.87 463.72
  C 248.89 431.58 261.72 399.79 280.34 373.09
  C 293.03 354.89 308.05 337.10 326.03 321.12
  C 370.01 282.03 426.39 259.07 484.89 254.13
  C 491.78 253.55 493.72 258.28 493.74 264.44
  Q 493.78 279.47 493.73 294.50
  C 493.70 302.90 493.91 307.06 484.74 307.91
  C 402.72 315.45 333.71 368.05 303.04 443.75
  Q 293.13 468.21 290.20 496.03
  C 289.50 502.72 291.93 511.96 281.59 512.02
  Q 264.71 512.12 247.84 512.12
  C 243.06 512.12 239.33 512.34 237.71 507.76
  Q 236.88 505.44 237.18 501.49
  C 238.11 488.82 239.16 476.15 241.87 463.72
  Z
  M 458.75 279.30
  C 414.92 287.77 376.29 306.54 341.96 335.21
  C 323.99 350.22 308.43 369.44 295.32 388.75
  Q 289.53 397.27 285.02 405.86
  C 272.16 430.34 261.46 459.09 259.76 486.56
  C 259.30 493.90 269.59 492.05 269.97 488.00
  C 271.95 466.87 278.76 446.26 287.08 426.87
  Q 291.01 417.71 296.00 408.99
  C 330.76 348.23 386.86 306.08 455.25 290.78
  Q 459.72 289.78 465.71 289.08
  C 470.01 288.59 472.20 287.73 471.91 282.99
  C 471.47 275.77 463.11 278.46 458.75 279.30
  Z"
/>
<path fill="#ffffff" d="
  M 670.99 387.24
  C 636.55 345.61 590.17 319.91 537.97 309.91
  Q 530.30 308.44 522.50 307.99
  C 519.07 307.80 513.84 305.39 513.83 301.25
  Q 513.79 282.96 513.80 264.67
  Q 513.80 259.64 515.03 257.55
  Q 517.23 253.81 522.50 254.23
  Q 539.47 255.57 561.01 259.72
  Q 566.93 260.86 586.23 267.13
  Q 635.16 283.02 674.96 315.52
  Q 696.12 332.79 710.62 350.87
  C 716.27 357.91 724.48 368.58 729.96 377.11
  Q 759.55 423.18 767.95 477.76
  Q 770.62 495.10 770.23 506.01
  C 770.06 510.57 765.93 512.04 761.72 512.08
  Q 743.48 512.24 725.24 512.25
  C 718.64 512.25 717.82 507.26 717.45 501.50
  C 714.73 459.29 698.23 420.15 670.99 387.24
  Z
  M 561.42 292.99
  C 619.54 309.19 668.18 342.90 702.07 393.15
  A 1.56 1.55 -29.4 0 0 704.02 393.69
  L 709.50 391.15
  A 2.93 2.92 -28.3 0 0 710.76 386.96
  Q 706.78 380.48 701.77 373.98
  C 689.80 358.47 676.22 343.76 660.96 331.45
  Q 614.00 293.57 554.63 279.82
  Q 547.65 278.20 540.50 277.75
  Q 536.93 277.53 536.25 281.01
  C 534.96 287.67 537.71 289.27 543.75 289.30
  Q 548.26 289.32 561.42 292.99
  Z
  M 713.42 412.77
  L 724.72 436.52
  A 1.40 1.39 71.0 0 0 726.28 437.29
  C 729.91 436.48 735.77 436.07 733.71 430.65
  C 730.92 423.27 727.19 416.27 724.05 408.96
  Q 722.91 406.32 720.38 407.68
  L 713.95 411.16
  A 1.23 1.23 0.0 0 0 713.42 412.77
  Z
  M 739.32 454.54
  C 737.77 454.82 733.49 456.25 731.69 457.61
  A 0.97 0.97 0.0 0 0 731.35 458.67
  Q 735.67 472.95 737.74 487.73
  C 738.38 492.33 744.70 491.60 747.34 489.72
  A 1.61 1.60 71.5 0 0 748.02 488.35
  C 747.67 477.83 745.11 466.89 742.24 456.76
  Q 741.50 454.15 739.32 454.54
  Z"
/>
<path fill="#010614" d="
  M 702.07 393.15
  C 668.18 342.90 619.54 309.19 561.42 292.99
  Q 548.26 289.32 543.75 289.30
  C 537.71 289.27 534.96 287.67 536.25 281.01
  Q 536.93 277.53 540.50 277.75
  Q 547.65 278.20 554.63 279.82
  Q 614.00 293.57 660.96 331.45
  C 676.22 343.76 689.80 358.47 701.77 373.98
  Q 706.78 380.48 710.76 386.96
  A 2.93 2.92 -28.3 0 1 709.50 391.15
  L 704.02 393.69
  A 1.56 1.55 -29.4 0 1 702.07 393.15
  Z"
/>
<path fill="#010614" d="
  M 341.96 335.21
  C 376.29 306.54 414.92 287.77 458.75 279.30
  C 463.11 278.46 471.47 275.77 471.91 282.99
  C 472.20 287.73 470.01 288.59 465.71 289.08
  Q 459.72 289.78 455.25 290.78
  C 386.86 306.08 330.76 348.23 296.00 408.99
  Q 291.01 417.71 287.08 426.87
  C 278.76 446.26 271.95 466.87 269.97 488.00
  C 269.59 492.05 259.30 493.90 259.76 486.56
  C 261.46 459.09 272.16 430.34 285.02 405.86
  Q 289.53 397.27 295.32 388.75
  C 308.43 369.44 323.99 350.22 341.96 335.21
  Z"
/>
<path fill="#ffffff" d="
  M 505.25 362.48
  C 466.42 361.93 423.83 377.18 395.28 403.89
  C 368.53 428.91 347.67 464.31 344.89 501.68
  C 344.41 508.22 343.73 511.93 336.48 512.16
  C 331.14 512.33 324.56 512.13 324.24 504.99
  Q 323.96 498.87 325.48 488.74
  C 330.36 456.21 345.59 426.90 367.22 402.21
  C 392.02 373.92 423.21 355.69 460.05 346.12
  C 551.01 322.49 652.54 378.23 678.41 470.00
  Q 682.83 485.68 683.62 501.92
  Q 683.82 506.03 682.94 507.95
  C 680.75 512.71 674.41 512.95 669.76 511.99
  C 664.24 510.85 663.70 507.51 663.21 502.18
  C 659.62 462.79 639.96 427.55 609.97 402.02
  Q 564.52 363.33 505.25 362.48
  Z"
/>
<path fill="#ffffff" d="
  M 480.25 503.48
  C 464.58 477.28 465.11 445.66 482.05 420.26
  C 495.85 399.57 520.47 388.45 545.02 388.28
  C 584.56 388.01 620.02 420.98 621.15 461.01
  Q 621.74 482.05 613.34 499.48
  C 595.65 536.20 552.31 548.59 515.43 534.33
  A 0.46 0.46 0.0 0 0 514.80 534.76
  L 514.56 570.44
  Q 514.55 571.24 514.07 571.89
  Q 512.40 574.14 510.39 576.39
  Q 509.20 577.74 508.25 577.75
  Q 495.82 577.91 483.31 577.91
  A 1.28 1.27 22.7 0 0 482.42 578.27
  L 464.08 595.94
  A 1.78 1.76 65.4 0 0 463.55 597.38
  L 466.05 624.10
  Q 466.10 624.69 465.68 625.10
  L 460.96 629.63
  A 1.42 1.40 -66.5 0 1 459.99 630.02
  L 404.88 630.07
  A 0.16 0.15 -4.1 0 1 404.72 629.94
  L 396.59 590.09
  A 2.44 2.43 61.6 0 1 397.25 587.87
  L 480.13 504.44
  Q 480.56 504.01 480.25 503.48
  Z
  M 591.85 435.09
  C 580.36 417.93 559.91 408.00 539.24 409.85
  C 507.85 412.65 486.72 439.68 489.84 471.01
  C 491.25 485.13 499.19 497.97 510.19 506.96
  C 522.89 517.34 541.29 521.01 557.20 518.16
  C 595.30 511.35 613.23 467.00 591.85 435.09
  Z
  M 446.44 610.29
  L 443.81 588.88
  A 1.52 1.50 64.0 0 1 444.22 587.66
  L 471.57 559.90
  A 3.34 3.33 21.9 0 1 473.93 558.90
  L 494.94 558.80
  A 0.50 0.49 -0.0 0 0 495.44 558.31
  L 495.52 521.00
  Q 495.52 520.65 495.19 520.54
  Q 495.00 520.48 494.77 520.53
  Q 494.61 520.57 494.44 520.72
  Q 480.77 533.03 469.73 544.48
  C 459.31 555.29 447.73 566.36 438.79 575.43
  Q 428.65 585.70 418.51 596.01
  Q 418.13 596.40 418.21 596.94
  L 420.41 610.51
  Q 420.47 610.86 420.82 610.86
  L 445.97 610.83
  Q 446.51 610.83 446.44 610.29
  Z"
/>
<path fill="#010614" d="
  M 713.42 412.77
  A 1.23 1.23 0.0 0 1 713.95 411.16
  L 720.38 407.68
  Q 722.91 406.32 724.05 408.96
  C 727.19 416.27 730.92 423.27 733.71 430.65
  C 735.77 436.07 729.91 436.48 726.28 437.29
  A 1.40 1.39 71.0 0 1 724.72 436.52
  L 713.42 412.77
  Z"
/>
<path fill="#010614" d="
  M 539.24 409.85
  C 559.91 408.00 580.36 417.93 591.85 435.09
  C 613.23 467.00 595.30 511.35 557.20 518.16
  C 541.29 521.01 522.89 517.34 510.19 506.96
  C 499.19 497.97 491.25 485.13 489.84 471.01
  C 486.72 439.68 507.85 412.65 539.24 409.85
  Z
  M 574.43 459.22
  A 27.69 27.69 0.0 0 0 546.74 431.53
  A 27.69 27.69 0.0 0 0 519.05 459.22
  A 27.69 27.69 0.0 0 0 546.74 486.91
  A 27.69 27.69 0.0 0 0 574.43 459.22
  Z"
/>
<circle fill="#ffffff" cx="425.89" cy="424.20" r="10.00"/>
<path fill="#ffffff" d="
  M 574.43 459.22
  A 27.69 27.69 0.0 0 1 546.74 486.91
  A 27.69 27.69 0.0 0 1 519.05 459.22
  A 27.69 27.69 0.0 0 1 546.74 431.53
  A 27.69 27.69 0.0 0 1 574.43 459.22
  Z
  M 555.53 459.89
  A 8.60 8.60 0.0 0 0 546.93 451.29
  A 8.60 8.60 0.0 0 0 538.33 459.89
  A 8.60 8.60 0.0 0 0 546.93 468.49
  A 8.60 8.60 0.0 0 0 555.53 459.89
  Z"
/>
<circle fill="#010614" cx="546.93" cy="459.89" r="8.60"/>
<path fill="#010614" d="
  M 731.69 457.61
  C 733.49 456.25 737.77 454.82 739.32 454.54
  Q 741.50 454.15 742.24 456.76
  C 745.11 466.89 747.67 477.83 748.02 488.35
  A 1.61 1.60 71.5 0 1 747.34 489.72
  C 744.70 491.60 738.38 492.33 737.74 487.73
  Q 735.67 472.95 731.35 458.67
  A 0.97 0.97 0.0 0 1 731.69 457.61
  Z"
/>
<ellipse fill="#ffffff" cx="0.00" cy="0.00" transform="translate(394.09,473.20) rotate(104.6)" rx="10.00" ry="9.74"/>
<path fill="#010614" d="
  M 443.81 588.88
  L 446.44 610.29
  Q 446.51 610.83 445.97 610.83
  L 420.82 610.86
  Q 420.47 610.86 420.41 610.51
  L 418.21 596.94
  Q 418.13 596.40 418.51 596.01
  Q 428.65 585.70 438.79 575.43
  C 447.73 566.36 459.31 555.29 469.73 544.48
  Q 480.77 533.03 494.44 520.72
  Q 494.61 520.57 494.77 520.53
  Q 495.00 520.48 495.19 520.54
  Q 495.52 520.65 495.52 521.00
  L 495.44 558.31
  A 0.50 0.49 -0.0 0 1 494.94 558.80
  L 473.93 558.90
  A 3.34 3.33 21.9 0 0 471.57 559.90
  L 444.22 587.66
  A 1.52 1.50 64.0 0 0 443.81 588.88
  Z"
/>
<path fill="#ffffff" d="
  M 387.76 629.99
  C 414.16 658.07 454.28 677.63 493.00 679.71
  C 518.58 681.08 541.13 677.37 564.29 667.92
  C 606.52 650.68 641.41 615.05 655.42 571.39
  Q 660.61 555.23 662.63 538.28
  C 663.97 527.00 683.42 527.93 683.29 539.00
  Q 683.21 545.99 681.90 552.85
  C 676.34 581.90 664.83 609.34 646.00 632.49
  Q 638.53 641.66 631.36 648.84
  C 586.47 693.78 522.96 710.26 461.45 696.42
  C 434.75 690.42 408.61 676.85 387.93 659.57
  C 364.24 639.76 344.06 611.86 333.63 582.18
  C 328.99 568.96 325.40 556.00 324.55 541.75
  C 324.05 533.40 327.86 530.34 335.84 530.73
  Q 341.22 531.00 343.80 535.35
  Q 345.09 537.53 345.57 542.93
  C 348.51 575.69 365.42 606.22 387.76 629.99
  Z"
/>
<path fill="#ffffff" d="
  M 459.28 784.06
  C 384.51 771.50 319.71 727.80 278.43 664.66
  Q 272.97 656.32 268.22 647.48
  C 250.95 615.36 239.70 580.13 237.17 543.72
  C 236.69 536.88 237.90 531.76 245.75 531.79
  Q 263.18 531.84 280.62 531.80
  C 285.57 531.79 289.60 533.54 290.00 538.75
  Q 291.11 553.15 291.78 557.01
  C 302.22 616.62 337.89 667.52 388.12 700.62
  Q 396.36 706.05 411.56 713.35
  Q 446.29 730.03 488.00 733.99
  C 492.50 734.42 493.71 738.60 493.72 742.78
  Q 493.77 761.26 493.68 779.75
  C 493.66 785.45 489.44 788.45 484.00 787.75
  Q 471.60 786.14 459.28 784.06
  Z
  M 273.31 578.59
  Q 274.40 578.03 274.18 576.82
  L 270.42 556.21
  A 1.08 1.08 0.0 0 0 269.38 555.33
  C 267.25 555.27 259.46 554.20 259.81 557.75
  Q 260.62 566.08 263.79 578.49
  C 265.02 583.31 270.64 579.97 273.31 578.59
  Z
  M 287.63 639.20
  Q 296.08 654.61 300.78 660.97
  Q 307.73 670.36 316.44 681.89
  Q 317.10 682.77 317.98 682.11
  L 324.95 676.90
  A 1.01 1.01 0.0 0 0 325.16 675.50
  Q 318.75 666.58 312.21 657.59
  Q 293.17 631.43 281.86 601.10
  C 280.48 597.40 275.24 600.36 272.74 601.38
  A 2.14 2.13 68.7 0 0 271.55 604.10
  Q 278.24 622.09 287.63 639.20
  Z
  M 335.39 699.77
  C 371.79 734.10 415.20 754.47 463.73 764.44
  Q 466.60 765.03 468.26 764.99
  C 473.92 764.85 472.25 753.79 468.51 753.28
  C 463.71 752.63 458.87 752.06 454.21 750.91
  C 412.89 740.70 376.15 722.16 344.49 693.28
  Q 343.63 692.50 342.49 691.95
  Q 342.10 691.76 341.71 691.98
  Q 338.06 694.02 335.26 697.22
  A 1.84 1.84 0.0 0 0 335.39 699.77
  Z"
/>
<path fill="#ffffff" d="
  M 747.42 631.10
  C 729.06 671.06 702.44 704.05 668.35 731.31
  C 626.87 764.48 574.37 782.48 523.00 788.03
  Q 517.51 788.62 514.78 784.49
  Q 513.54 782.61 513.55 779.21
  Q 513.65 760.98 513.82 742.76
  C 513.88 735.68 516.79 733.71 523.54 733.38
  C 534.84 732.84 544.60 730.59 556.68 727.55
  C 615.96 712.63 665.97 672.31 694.95 618.70
  Q 699.68 609.95 706.53 590.94
  Q 715.12 567.14 717.48 538.25
  C 717.88 533.38 721.82 531.74 726.44 531.75
  Q 743.47 531.79 760.48 531.72
  Q 764.96 531.71 766.83 532.83
  C 769.86 534.66 770.45 537.81 770.21 541.40
  Q 767.06 588.33 747.42 631.10
  Z
  M 722.08 629.50
  A 2.30 2.30 0.0 0 0 725.40 628.56
  Q 741.33 595.52 747.14 558.73
  Q 747.40 557.10 747.25 556.17
  A 1.38 1.38 0.0 0 0 745.91 555.00
  L 738.81 554.91
  Q 738.23 554.91 737.79 555.29
  C 736.17 556.69 736.60 558.23 736.32 559.94
  C 732.64 582.10 724.93 604.27 715.40 624.62
  A 0.57 0.57 0.0 0 0 715.61 625.34
  L 722.08 629.50
  Z
  M 614.69 727.96
  C 591.47 740.11 566.68 748.42 540.42 752.80
  C 535.16 753.68 536.12 757.22 536.61 761.23
  C 537.14 765.60 540.87 764.40 543.74 763.86
  C 573.29 758.31 603.84 748.13 629.55 732.29
  C 649.36 720.08 663.85 708.59 680.66 692.15
  Q 693.78 679.31 706.66 660.88
  Q 712.18 652.98 712.93 650.17
  C 713.88 646.59 708.28 643.87 705.72 643.68
  A 1.21 1.20 23.9 0 0 704.80 644.03
  C 702.93 645.93 701.29 648.95 700.26 650.35
  C 695.16 657.33 689.92 664.73 684.62 670.96
  C 665.21 693.77 641.29 714.04 614.69 727.96
  Z"
/>
<circle fill="#ffffff" cx="385.84" cy="542.06" r="9.60"/>
<circle fill="#ffffff" cx="621.32" cy="545.08" r="9.77"/>
<path fill="#010614" d="
  M 722.08 629.50
  L 715.61 625.34
  A 0.57 0.57 0.0 0 1 715.40 624.62
  C 724.93 604.27 732.64 582.10 736.32 559.94
  C 736.60 558.23 736.17 556.69 737.79 555.29
  Q 738.23 554.91 738.81 554.91
  L 745.91 555.00
  A 1.38 1.38 0.0 0 1 747.25 556.17
  Q 747.40 557.10 747.14 558.73
  Q 741.33 595.52 725.40 628.56
  A 2.30 2.30 0.0 0 1 722.08 629.50
  Z"
/>
<path fill="#010614" d="
  M 273.31 578.59
  C 270.64 579.97 265.02 583.31 263.79 578.49
  Q 260.62 566.08 259.81 557.75
  C 259.46 554.20 267.25 555.27 269.38 555.33
  A 1.08 1.08 0.0 0 1 270.42 556.21
  L 274.18 576.82
  Q 274.40 578.03 273.31 578.59
  Z"
/>
<ellipse fill="#ffffff" cx="0.00" cy="0.00" transform="translate(600.32,587.11) rotate(-24.9)" rx="9.92" ry="9.62"/>
<path fill="#010614" d="
  M 287.63 639.20
  Q 278.24 622.09 271.55 604.10
  A 2.14 2.13 68.7 0 1 272.74 601.38
  C 275.24 600.36 280.48 597.40 281.86 601.10
  Q 293.17 631.43 312.21 657.59
  Q 318.75 666.58 325.16 675.50
  A 1.01 1.01 0.0 0 1 324.95 676.90
  L 317.98 682.11
  Q 317.10 682.77 316.44 681.89
  Q 307.73 670.36 300.78 660.97
  Q 296.08 654.61 287.63 639.20
  Z"
/>
<ellipse fill="#ffffff" cx="0.00" cy="0.00" transform="translate(520.82,626.48) rotate(80.3)" rx="9.88" ry="9.73"/>
<circle fill="#ffffff" cx="567.64" cy="626.32" r="9.93"/>
<path fill="#010614" d="
  M 540.42 752.80
  C 566.68 748.42 591.47 740.11 614.69 727.96
  C 641.29 714.04 665.21 693.77 684.62 670.96
  C 689.92 664.73 695.16 657.33 700.26 650.35
  C 701.29 648.95 702.93 645.93 704.80 644.03
  A 1.21 1.20 23.9 0 1 705.72 643.68
  C 708.28 643.87 713.88 646.59 712.93 650.17
  Q 712.18 652.98 706.66 660.88
  Q 693.78 679.31 680.66 692.15
  C 663.85 708.59 649.36 720.08 629.55 732.29
  C 603.84 748.13 573.29 758.31 543.74 763.86
  C 540.87 764.40 537.14 765.60 536.61 761.23
  C 536.12 757.22 535.16 753.68 540.42 752.80
  Z"
/>
<path fill="#010614" d="
  M 463.73 764.44
  C 415.20 754.47 371.79 734.10 335.39 699.77
  A 1.84 1.84 0.0 0 1 335.26 697.22
  Q 338.06 694.02 341.71 691.98
  Q 342.10 691.76 342.49 691.95
  Q 343.63 692.50 344.49 693.28
  C 376.15 722.16 412.89 740.70 454.21 750.91
  C 458.87 752.06 463.71 752.63 468.51 753.28
  C 472.25 753.79 473.92 764.85 468.26 764.99
  Q 466.60 765.03 463.73 764.44
  Z"
/>
</svg>
